<svg xmlns="http://www.w3.org/2000/svg" viewBox="0 0 400 129.38">
  <g fill-rule="evenodd">
    <path fill="#004f60" d="M177.54 27.17c0 .32.03.45.08.29.04-.16.04-.43 0-.59-.05-.16-.08-.02-.08.3m-.5 12.16c0 .42.04.59.08.38.04-.2.04-.55 0-.75-.04-.2-.08-.04-.08.37m31.69 3.84c0 .96.03 1.35.06.87.03-.48.03-1.27 0-1.75s-.06-.09-.06.88m-31.85-.25c0 .45.03.62.07.37a3 3 0 0 0 0-.83c-.04-.2-.07 0-.07.46m70.29 1.41c0 .28.06.5.13.5.08 0 .1-.22.07-.5-.04-.27-.1-.5-.14-.5-.03 0-.06.23-.06.5m141.37 1.51c-.3.28-.54.56-.54.62 0 .06.26-.15.58-.46.54-.52.66-.67.55-.67-.03 0-.29.23-.59.51m-171.5 2.58c0 .36.04.5.08.29.04-.21.04-.51 0-.67-.05-.16-.08.01-.08.38m-40.33.58c0 .32.03.45.07.3a1.4 1.4 0 0 0 0-.6c-.04-.15-.07-.02-.07.3m-.5 12.33c0 .32.03.45.07.3a1.4 1.4 0 0 0 0-.59c-.04-.16-.07-.03-.07.3m-.17 7.33c0 .32.03.45.08.29.04-.16.04-.42 0-.58-.05-.16-.08-.03-.08.29m-.16 2.16c0 .42.03.59.07.38.04-.2.04-.54 0-.75-.04-.2-.07-.04-.07.37m73.79 7c0 .28.06.5.13.5.08 0 .1-.22.07-.5-.04-.27-.1-.5-.14-.5-.03 0-.06.23-.06.5M88.52 81.56c-.12.14-.18.36-.13.48.05.13.09.1.1-.08 0-.28.67-.3 11.3-.3 6.21 0 11.38-.05 11.48-.12.11-.07-4.91-.15-11.16-.19-10.27-.06-11.39-.04-11.59.2m28.02-.02c.53.15 4.2.16 4.06.01-.07-.07-1.1-.12-2.29-.12s-1.98.05-1.78.1m7.83.03c-.12.15-.19.51-.15.81l.07.56.03-.63.02-.62 9.63-.02c5.3 0 9.75-.06 9.9-.12.16-.06-4.11-.14-9.5-.17-8.68-.06-9.81-.03-10 .2m25.37-.02c.1.07 1.4.12 2.88.12h2.7l.05 1.38c.03.76 0 2.16-.06 3.13-.13 1.91-.4 8.1-.63 14.5a97.65 97.65 0 0 1-.43 7.41l-.08.67h-18.24l-.21 3.08-.4 5.71-.2 2.63h-13.94v-.88c0-.48.08-1.36.17-1.94.1-.6.25-2.13.33-3.42.36-5.47.5-7.12.57-7.25.05-.08.17-1.55.26-3.28.1-1.73.25-3.75.33-4.48.09-.74.2-2.16.26-3.17.06-1 .17-2.47.26-3.25.08-.78.15-2.1.15-2.95 0-.84.07-1.57.16-1.63.08-.05.2-.41.24-.8.15-1.2.28-4.19.18-4.09a18.2 18.2 0 0 0-.25 2.4c-.18 2.7-.73 3.36-1.25 1.5-.12-.4-.3-.82-1.17-2.68-.34-.73-.67-1.56-.73-1.83-.08-.34-.16.08-.24 1.33a114.07 114.07 0 0 1-.7 7.54c-.05.16-2.1.21-9.55.21h-9.49l-.09.38c-.05.2-.14 1.06-.2 1.91l-.12 1.54h19.09l-.1 1.55c-.48 7.09-.61 8.9-.76 10.2a92.26 92.26 0 0 0-.52 6.5c0 .46-.12 1.51-.25 2.34-.14.82-.25 2-.25 2.6 0 .62-.05 1.24-.1 1.38-.1.24-1.7.27-16.46.29-9 0-16.58.07-16.86.14-.27.07-.38.14-.23.15.34.02 1.01.6.87.74-.06.06.01.11.16.11.14 0 .31.15.37.34.06.18.25.4.43.5.17.1.32.27.32.4 0 .11.19.3.42.4.24.11.41.33.41.53 0 .21.16.4.42.5.23.09.42.24.42.34 0 .1-.1.13-.21.06-.12-.07.02.1.29.38.28.28.53.47.57.44.14-.1.66.84.56 1.02-.05.1-.04.12.04.06.13-.13.75.47.75.73 0 .07.11.14.25.14.24 0 .67.75.6 1.05-.01.08.05.09.15.03.1-.06.42.12.71.4l.54.52h15.48c8.52 0 15.5-.02 15.53-.04.07-.07.23-2.59.26-3.92 0-.67.08-1.21.15-1.21.16 0 .39.52.34.8-.02.13.04.18.14.12s.18-.02.18.08.09.13.2.07c.1-.07.14-.05.08.04-.05.1.01.37.14.63.14.26.25.56.25.68 0 .11.14.3.32.44a1 1 0 0 1 .38.47c.02.14.25.55.5.9.25.36.41.72.36.8-.04.07.07.14.26.14a5709.85 5709.85 0 0 0 12.5 0 .5.5 0 0 0 .43-.3c.1-.26.43-7.15.4-8.83 0-.39.08-.7.17-.7.1 0 .16-.1.13-.22-.03-.16 1.72-.21 8.23-.25 9.94-.05 8.76.44 8.91-3.7.07-1.7.18-3.16.25-3.25a13 13 0 0 0 .14-2.42c.03-3.65.34-14.19.44-15.02.13-.97-.22-4.12-.5-4.56-.11-.19-.26-.7-.33-1.14-.07-.47-.25-.92-.44-1.08a.96.96 0 0 1-.32-.61c0-.19-.1-.69-.24-1.11a12.2 12.2 0 0 1-.35-1.67c-.06-.5-.15-.96-.2-1.03a4.98 4.98 0 0 1-.19-1l-.1-.86h-2.94c-1.62 0-2.86.05-2.75.12m9.17-.08c-.11.08-.22 1.22-.29 3.06a31.31 31.31 0 0 1-.21 3.25c-.09.24-.07.27.09.13.13-.13.23-1.18.3-3.21l.1-3.02h13l-.11 4.12c-.06 2.27-.19 8.14-.28 13.04-.09 4.9-.2 9.31-.26 9.8l-.11.87h.92c1.18 0 1.11.2 1.14-3.28.01-1.63.09-3.05.17-3.16.08-.1.12-.85.1-1.66-.02-.82-.02-3.2 0-5.32.04-3.98.03-4.2-.19-4.55a8.8 8.8 0 0 1-.22-1.83 5.97 5.97 0 0 0-.33-2c-.25-.4-.49-2.03-.65-4.37-.05-.68-.12-1.41-.16-1.61l-.08-.37h-6.37c-3.5-.01-6.46.04-6.56.1m33.3 0c-.15.06-.2.84-.16 3.27l.04 3.2.04-3.13.05-3.12h31.16l.02.95c.01.53.08 1.9.15 3.05.12 1.89.13 1.8.07-.9-.04-1.87-.14-3.07-.26-3.21-.18-.23-30.55-.34-31.1-.12m35.16.09c-.13.13-.2.73-.2 1.63a11.78 11.78 0 0 1-.5 3.56c-.1.44-.28.91-.42 1.05-.14.14-.25.44-.25.66 0 .22-.08.4-.18.4-.1 0-.13.07-.09.14.05.08-.01.47-.13.88-.26.86-.47 2.93-.47 4.57 0 3.01.22 13.95.3 14.91.04.6.11 2.12.15 3.38.09 2.6.2 2.96.94 2.96.49 0 .6.83.16 1.16-.22.17-.82 3.32-.71 3.72.06.23.2 4.18.21 6.4l.02 2.22h.44c5.34.02 30.76-.02 30.9-.05.18-.04.67-.82 1.21-1.94.16-.32.46-.83.67-1.15.21-.31.35-.67.3-.8-.05-.13-.01-.23.08-.23.1 0 .32-.24.51-.54l.35-.54.03.58a12 12 0 0 1 0 1.2c-.02.33.04.65.13.71.1.06.18.66.18 1.34s.08 1.28.17 1.33c.89.55 13.44 0 13.08-.57-.03-.07.06-.24.22-.38.48-.46 1.48-1.9 1.95-2.81.14-.27.33-.45.43-.4.08.06.14.04.12-.03a9.95 9.95 0 0 1 1.6-2.38.8.8 0 0 0 .26-.52c0-.17.1-.37.23-.44.12-.07.3-.28.4-.47.17-.29.2-.25.2.34 0 .46.06.59.16.43.2-.3.3.56.43 3.23.08 2.02.21 3.5.34 3.88.1.31 12.54.29 12.95-.03.16-.12.3-.26.3-.3 0-.06.2-.32.45-.6l1.21-1.35c.41-.48.96-1.09 1.2-1.36.26-.27.47-.53.47-.56 0-.04.22-.3.5-.57.27-.27.5-.62.5-.76 0-.15.1-.26.25-.26.13 0 .25-.06.25-.13 0-.15.62-.87 1.87-2.16l.84-.88-.2-1.29c-.12-.71-.21-1.57-.2-1.92 0-.34-.07-.62-.15-.62-.08 0-.14-.14-.13-.3.01-.63-.38-4.27-.47-4.36-.23-.21.38 6.3.61 6.58.25.3.14 2.16-.13 2.14-.12 0-3.2-.03-6.85-.04l-6.63-.02-.2-1.3a38.4 38.4 0 0 1-.28-2.95c-.05-.92-.2-2.5-.33-3.5a55.89 55.89 0 0 1-.59-5.73v-.86h-7.35l.1.55c.14.85.4 3.65.6 6.29.1 1.33.27 2.75.38 3.17.2.68.25 1.26.33 3.74.02.45-.04.66-.18.65-.12 0-3.16-.03-6.77-.04l-6.57-.02-.1-.46c-.05-.25-.18-1.69-.27-3.2-.1-1.5-.22-2.8-.27-2.88-.1-.15-.22-1.67-.56-6.95-.1-1.5-.22-2.8-.27-2.88a48.5 48.5 0 0 1-.32-3.76c-.47-7.13-.56-8.38-.66-8.53-.1-.16-.36-3.58-.58-7.6-.06-1.19-.13-1.85-.14-1.46-.02.38-.1.74-.2.8-.1.06-.17.22-.17.35 0 .14-.19.68-.43 1.2l-.94 2.12c-.5 1.12-.89 1.64-1.12 1.5a5.1 5.1 0 0 0-.04 1.5l.07 1.58h-19.25l.1 1.28c.06.7.11 1.56.11 1.92v.65l8.8-.02h10.51l.09 1.05a852.2 852.2 0 0 0 1.44 18.38c.08.9.2 2.5.25 3.53l.1 1.88h-33.64l-.14-2.88c-.08-1.58-.15-3.96-.15-5.29v-2.42l9.62-.04 9.63-.04-.04-1.88-.05-1.87-9.7-.04c-9.05-.04-9.7-.06-9.78-.34-.05-.16-.14-2.09-.2-4.29a71.7 71.7 0 0 0-.18-4.11c-.03-.06-.14-2.35-.23-5.08l-.27-7.6-.1-2.62 4.98-.02c2.74 0 5.17-.07 5.4-.14.23-.07-1.95-.14-4.84-.16-3.97-.02-5.3.02-5.46.18m36.96-.03c-.68.05 1.68.12 5.25.17l6.5.08.2 1.25.2 1.25-.06-1.23a3.95 3.95 0 0 0-.25-1.42c-.2-.19-9.33-.27-11.84-.1m18.96.03c-.11.06-.17.44-.15.87.05.75-.25 1.45-1.54 3.6-.2.32-.5.87-.68 1.22-.33.67-1.38 1.66-1.6 1.52-.07-.04-.08.07-.04.25.05.2-.06.52-.26.78-.2.24-.35.53-.35.65 0 .1-.2.4-.42.65-.23.25-.42.55-.42.68 0 .15-.1.2-.26.14-.27-.1-.25 1.14.04 2.65l.08.46h6.81l-.09-1.38c-.05-.75-.17-1.88-.26-2.5-.28-2-.5-4.16-.7-6.83l-.2-2.62h12.86l.21 1.34c.12.73.25 1.3.3 1.26.14-.14-.35-2.77-.52-2.8a294.9 294.9 0 0 0-12.81.06m-107.91 1.64c0 .4.03.58.07.37.04-.2.04-.54 0-.75-.04-.2-.07-.04-.07.38m-87.29.7c-.06.4-.18 1.31-.26 2.05-.08.73-.19 1.52-.25 1.75-.09.35-.08.37.09.12.1-.17.25-.92.33-1.67.08-.75.2-1.73.26-2.16.15-.98 0-1.06-.17-.08m188.44 1.7c0 .37.09 1.16.22 1.75l.23 1.09-.1-1a30.4 30.4 0 0 0-.22-1.75l-.12-.75-.01.66m20.16.08c-.05.57.73 4.45.93 4.65.2.2.21.16.12-.21a5.91 5.91 0 0 1-.14-.93 1.26 1.26 0 0 0-.23-.7c-.11-.11-.21-.47-.22-.8-.02-.62-.43-2.42-.46-2.01m24.7.97c.02.2.13.46.24.57.15.15.18.1.12-.2-.1-.53-.45-.88-.37-.37m-61.34.87c0 .32.03.45.07.3.05-.17.05-.43 0-.6-.04-.15-.07-.02-.07.3m-36.26 2.7c.13 2.9.22 2.93.22.08 0-1.29-.07-2.28-.16-2.28s-.11.9-.06 2.2m53.43-.62c0 .37.04.5.08.3a2.5 2.5 0 0 0 0-.67c-.05-.16-.08 0-.08.37m-139.56.88-.43.06-.1 2.2c-.06 1.2-.2 2.8-.3 3.53-.1.73-.15 1.7-.12 2.17l.05.83 2.03.05 2.03.04.09-1.04c.14-1.63.33-5.43.34-6.72l.01-1.16h-1.58c-.87-.01-1.78.01-2.02.04m68.37.02c-.2.13-.22.78-.13 3.88.06 2.05.1 4.16.1 4.68l.01.96h1.7c.95 0 1.89-.05 2.1-.1l.37-.1v-9.26l-.38-.09c-.69-.14-3.54-.13-3.77.03m91.67.94c0 .45.06 1.13.13 1.5.13.6.14.55.15-.5a5.9 5.9 0 0 0-.14-1.5c-.1-.25-.14-.12-.14.5m.33 3.37c-.01.57.04 1.04.1 1.04.08 0 .1-.35.08-.79-.08-1.27-.16-1.37-.18-.25M224 97.74c0 1.7.05 2.26.2 2.26.16 0 .16.04 0 .15-.13.08-.17.18-.08.24.08.05.13.84.1 1.76-.04 1 .01 1.7.11 1.77.11.06.17-.98.17-3.08s-.06-3.17-.18-3.17c-.11 0-.13-.34-.06-.98.07-.65.05-1.02-.07-1.1-.14-.08-.19.53-.19 2.15m74.22-.21c.06.75.18 1.44.28 1.53.09.1.17.52.17.93 0 1.07.19 2.51.32 2.51.07 0 .1-.2.07-.46l-.22-2.04a35.1 35.1 0 0 1-.2-2.37c-.02-.43-.08-.75-.14-.71-.07.04-.08-.11-.04-.34.05-.26 0-.41-.13-.41-.16 0-.19.32-.1 1.36m.82 6.43c.12 1.33.18 1.66.33 1.81.07.07.12.46.12.88 0 1.06.19 2.52.32 2.52.12 0 .1-.52-.16-2.67a41.4 41.4 0 0 1-.2-2.13c-.01-.39-.09-.7-.16-.7-.08 0-.1-.2-.04-.42.07-.28.04-.42-.1-.42-.15 0-.18.3-.1 1.13m-74.54 3.89c.01 1.6.08 3.91.15 5.15.08 1.46.1.47.04-2.83a99.6 99.6 0 0 0-.14-5.16c-.04-.03-.06 1.24-.05 2.84M86.19 105.8c-.31.2-.27.37.17.59.21.1.42.34.45.52.03.18.2.45.39.6.18.16.3.31.28.34a4.2 4.2 0 0 0 .98 1.39c.07 0 .1.06.08.13-.02.06 3.6.12 8.03.12h8.08l.08-.7c.05-.4.13-1.26.17-1.92l.08-1.21H95.7c-5.1 0-9.38.06-9.5.14m119.8 8.23c0 3.53.06 4.7.25 5.21.16.45.24.55.24.3 0-.2.08-.4.17-.47.1-.06.13.02.06.2-.1.24-.07.27.12.12.47-.36.82-.4.71-.1-.08.23-.06.25.13.08.12-.12.49-.2.81-.2l.6.03-.5.12c-.5.13-.5.13.12.15.6.02.62.04.63.64.08 5.12.16 8.94.2 8.97.2.2 13.34.11 13.22-.08-.06-.08-.02-.2.07-.26.1-.06.17-.33.17-.6 0-.28.11-.71.25-.97.23-.46.49-1.63.7-3.18.05-.4.19-.82.3-.91.12-.1.26-.44.3-.76.05-.32.16-.9.25-1.28.2-.94.66-.88-7.13-.88h-6.8l-.07-.88c-.04-.48-.08-2.37-.1-4.2a86.43 86.43 0 0 0-.14-4.47l-.1-1.12H206v4.54m93.83-3.62c0 .5.08.91.16.91.1 0 .16-.4.15-.91 0-.5-.07-.92-.16-.92-.08 0-.15.41-.15.92m-110.36.1c-.06 1.28-.07 1.4-.19 1.59-.06.1-.1 1.71-.1 3.58v3.94l-.01.54H173.5c-15.62 0-16.34.02-16.01.4.1.12.2.58.22 1.03.03.45.14.98.25 1.18.1.2.2.48.2.63 0 .15.1.44.22.64s.24.67.26 1.03c.03.37.11.74.2.83.08.09.15.33.15.55 0 .24.07.35.18.28.1-.06.16 0 .14.12a1 1 0 0 0 .07.47c.06.14.14.52.18.84l.08.69c0 .06.14.15.28.2.32.13 29.53.15 29.73.03.14-.09.07-19.09-.08-19.23-.04-.04-.1.25-.11.65m35.36 8.49c0 1.52.24 1.52.3 0 .02-.7-.03-1.17-.13-1.17s-.17.5-.17 1.17M192 122.87c-.02 3.07.02 6.2.08 6.25.12.12 13 .04 13.13-.09.08-.08.18-.63.23-1.21.04-.59.1-1.26.15-1.49.05-.23.1-.8.11-1.29.02-.48.1-.87.19-.87s.1-.13.05-.27c-.06-.15-.03-.36.05-.46.08-.1.18-.86.21-1.69l.06-1.5-7.13-.04-7.12-.05-.01 2.71"/>
    <path fill="#04d3fb" d="M111.33 81.5c-.16.1-4.22.16-11.52.16H88.54l-.1.38c-.06.2-.1.64-.1.96 0 .32-.08 1.15-.17 1.83-.1.7-.21 1.6-.26 2.04-.05.44-.2.9-.32 1.02-.24.23-.28.52-.6 4.53-.12 1.46-.28 2.7-.35 2.76-.13.09-.39 2.36-.59 5.27-.05.76-.15 1.34-.22 1.3-.12-.08-.29 1.35-.38 3.22l-.03.72 9.78-.02 9.78-.02-.08 1.22c-.05.67-.12 1.53-.17 1.92l-.08.71H84.84l-.02.38a87.95 87.95 0 0 0-.48 5.1c0 .1-.08.16-.17.1-.1-.06-.17.27-.18.87-.01.53-.04 1.12-.08 1.3-.03.18-.11.93-.17 1.67l-.11 1.33 16.8-.05c13.02-.03 16.83-.09 16.93-.25.08-.1.14-.73.14-1.37 0-.64.11-1.84.25-2.66.13-.83.25-1.88.25-2.34 0-.94.27-4.27.52-6.5.15-1.3.28-3.11.76-10.2l.1-1.55h-19.09l.11-1.54c.06-.85.16-1.7.21-1.92l.1-.37h9.48c7.45 0 9.5-.05 9.55-.2a103.52 103.52 0 0 0 .68-7.3c.05-.87.13-1.75.17-1.94.07-.36.02-.37-2.05-.47-5.04-.23-6.97-.26-7.2-.1m32.58 0c-.19.09-4.66.16-9.94.17h-9.6l-.12.97a59.3 59.3 0 0 0-.25 3 8.48 8.48 0 0 1-.32 2.25c-.11.11-.2.79-.2 1.7 0 .83-.06 2.14-.14 2.92-.09.78-.2 2.24-.26 3.25-.06 1-.17 2.43-.26 3.17-.08.73-.23 2.75-.33 4.48a38.5 38.5 0 0 1-.26 3.28c-.08.13-.2 1.78-.57 7.25a50.4 50.4 0 0 1-.33 3.42c-.1.59-.17 1.46-.17 1.94v.88h13.94l.2-2.63.4-5.7.2-3.09h18.25l.08-.67c.17-1.43.3-3.5.43-7.41.23-6.4.5-12.59.63-14.5.06-.97.1-2.37.06-3.12l-.05-1.37-2.78-.09c-6.63-.21-8.3-.23-8.61-.1m93.75.01c-.23.07-2.66.14-5.4.15l-4.99.02.11 2.62.27 7.6c.1 2.73.2 5.02.23 5.08.04.06.12 1.91.18 4.11s.15 4.13.2 4.3c.08.27.73.29 9.78.33l9.7.04.05 1.87.04 1.88-9.63.04-9.63.04V112c0 1.33.08 3.71.16 5.3l.14 2.87h33.64l-.1-1.88a97.33 97.33 0 0 0-.25-3.54 852.2 852.2 0 0 1-1.44-18.38l-.09-1.04h-10.51l-8.8.02v-.65c0-.36-.05-1.22-.1-1.92l-.11-1.28h19.21v-1.16c0-.64-.06-1.52-.15-1.96-.08-.44-.24-1.96-.34-3.38-.1-1.42-.22-2.83-.27-3.13l-.09-.54-10.7.02c-5.88.01-10.88.08-11.11.15m-78.88 3.2c-.08 2.32-.16 3.08-.34 3.21-.18.14-.25 1.07-.34 4.42l-.27 9.25c-.09 2.75-.17 6.17-.18 7.59a15.63 15.63 0 0 1-.16 2.75c-.07.09-.2 2.07-.26 4.4l-.12 4.22.34-.19c.25-.13 4.83-.18 16.03-.18h15.68v-.55c.02-.3.02-2.06.01-3.93 0-1.87.04-3.47.1-3.57.06-.1.14-.72.18-1.4l.07-1.22h-18.4l.1-.88c.06-.48.19-4.88.28-9.79.08-4.9.2-10.77.27-13.04l.1-4.12h-13l-.1 3.03m33.33 1.6c-.06 2.53-.1 11.2-.11 19.24v14.62l7.18.05 7.18.04-.12-.67c-.06-.36-.14-2.78-.18-5.37l-.07-4.71h4.47l.1 1.13c.06.61.12 2.62.14 4.45.02 1.84.06 3.73.1 4.2l.06.88 7.01.05 7.01.04-.1-3.42c-.07-1.88-.16-5.51-.22-8.08a44.49 44.49 0 0 0-.25-4.85c-.08-.1-.12-.9-.1-1.8a5.12 5.12 0 0 0-.1-1.77c-.12-.1-.1-.16.06-.17.16 0 .18-.04.06-.12-.12-.08-.21-1.77-.28-5.12-.05-2.75-.17-5.68-.27-6.5-.1-.83-.22-2.69-.28-4.13l-.1-2.62h-31.08l-.11 4.62m71.25-2.33c.19 3.77.46 7.38.56 7.55.1.15.2 1.4.65 8.53.13 1.99.28 3.68.33 3.77.05.08.17 1.37.27 2.87.34 5.28.46 6.8.56 6.95.05.08.17 1.38.27 2.89.1 1.5.22 2.94.27 3.19l.1.46 6.57.02 6.77.04c.14.01.2-.2.18-.65-.08-2.48-.13-3.06-.32-3.74a24.9 24.9 0 0 1-.4-3.17 91.9 91.9 0 0 0-.6-6.3l-.08-.54h7.34v.86c0 .88.17 2.56.59 5.73.13 1 .28 2.58.33 3.5.05.91.18 2.25.28 2.95l.2 1.3 6.63.02 6.85.04c.27.02.38-1.84.13-2.14-.16-.2-.4-2.3-.62-5.38a4.12 4.12 0 0 0-.22-1.38 4.3 4.3 0 0 1-.23-1.37l-.2-2.63a8.75 8.75 0 0 0-.2-1.5c-.2-.56-.42-2.24-.64-5.25a5.67 5.67 0 0 0-.26-1.52c-.14-.19-.63-5.16-.73-7.55a3.8 3.8 0 0 0-.2-1.33c-.17-.1-.88-4-.87-4.77 0-.27-.13-1.22-.29-2.12l-.3-1.62h-12.84l.2 2.62c.21 2.67.43 4.82.71 6.84.1.62.2 1.74.26 2.5l.1 1.37h-6.81l-.1-.46a45.3 45.3 0 0 1-.26-2.9c-.1-1.35-.29-2.89-.43-3.42-.14-.53-.33-1.87-.42-2.97a46.9 46.9 0 0 0-.29-2.75l-.13-.75-6.4-.04-6.42-.05.11 2.3m-122.12 7.62c0 1.3-.2 5.09-.34 6.72l-.1 1.04-2.02-.04-2.03-.05-.05-.83c-.03-.46.03-1.44.13-2.17s.23-2.32.28-3.53l.1-2.2.44-.06c.24-.03 1.15-.05 2.02-.05h1.58v1.17m68.54-1.13.38.09v9.25l-.38.1c-.2.06-1.14.1-2.08.1L206 100v-.96c0-.53-.05-2.63-.11-4.68-.1-3.1-.07-3.75.13-3.88.23-.16 3.08-.17 3.77-.03m-36.4 10.3c0 .46.03.63.06.37.04-.25.04-.63 0-.83-.04-.2-.07 0-.07.46"/>
    <path fill="#fb2443" d="M21.28 1.8c-.05.15-.13.49-.18.74-.06.25-.18.46-.27.46-.09 0-.16.15-.16.33a8.3 8.3 0 0 1-.63 2.33c-.14.1-.44 1.23-.64 2.38-.05.35-.16.63-.23.63s-.21.39-.32.87c-.35 1.55-.4 1.7-.54 1.8-.13.09-.4 1.1-.6 2.28-.04.3-.13.51-.2.47-.06-.04-.2.4-.32.96a5.7 5.7 0 0 1-.43 1.37c-.12.18-.25.55-.3.83-.24 1.2-.5 2.08-.62 2.08-.07 0-.19.42-.25.92s-.18.95-.27 1c-.08.06-.15.28-.15.5 0 .21-.1.6-.24.86-.34.7-.6 1.6-.6 2.12 0 .25-.06.41-.15.36-.15-.1-.2.05-.51 1.62-.1.52-.26.96-.35.96-.08 0-.15.22-.15.49s-.08.53-.17.59c-.1.06-.17.36-.17.66 0 .31-.1.67-.22.79-.24.24-.36.65-.66 2.22a3.2 3.2 0 0 1-.32 1.09 7.84 7.84 0 0 0-.63 2.34c0 .19-.07.3-.15.24-.18-.1-.23.05-.54 1.5a4.22 4.22 0 0 1-.32 1.08c-.1.08-.22.5-.48 1.75-.07.36-.26.91-.42 1.21-.3.58-.39.9-.41 1.48a1 1 0 0 1-.24.6c-.12.11-.27.51-.34.88-.22 1.31-.51 2.33-.72 2.55a.93.93 0 0 0-.21.56c0 .45-.37 1.7-.53 1.8a4.6 4.6 0 0 0-.36 1.32 4.13 4.13 0 0 1-.4 1.32c-.1.06-.27.63-.4 1.26-.12.63-.3 1.23-.4 1.33-.18.19-.75 2.34-.75 2.84 0 .14-.06.26-.14.26-.08 0-.23.4-.34.88-.35 1.55-.4 1.7-.54 1.8-.13.09-.4 1.1-.6 2.28-.04.3-.13.5-.2.47-.06-.04-.21.4-.33.96a6.23 6.23 0 0 1-.43 1.36 3 3 0 0 0-.3.84C1.23 67.6.96 68.5.85 68.5c-.08 0-.2.32-.25.7-.06.4-.16.9-.21 1.11-.1.38-.08.4.46.27.31-.08 14.85-.18 32.32-.23l31.75-.1.1-.67c.16-.97.41-2.22.62-3.08.1-.41.25-1.14.35-1.63l.34-1.66c.42-1.94.88-4.23 1.1-5.38.14-.68.35-1.62.48-2.08.12-.46.27-1.2.33-1.67.12-.9.33-2 .68-3.41.13-.5.32-1.4.42-2 .11-.6.3-1.46.42-1.92.12-.46.27-1.25.32-1.75a13 13 0 0 1 .33-1.67c.13-.4.32-1.27.43-1.91.1-.65.27-1.4.36-1.67.16-.53.42-1.82.62-3.13l.12-.79h-3.39c-2.6 0-3.38-.05-3.38-.2 0-.26.26-1.46.52-2.42l.19-.71h3.39c3.8 0 3.37.14 3.63-1.17.04-.23.16-.71.25-1.08.1-.37.25-1.12.36-1.67l.32-1.66.33-1.67c.1-.55.26-1.3.36-1.67.23-.91.46-2.03.58-2.83.05-.37.2-.97.32-1.33.13-.37.28-1.12.34-1.67a29 29 0 0 1 .7-3.67c.1-.36.28-1.15.38-1.75.1-.6.3-1.42.41-1.83.13-.41.28-1.24.34-1.83.07-.6.18-1.26.26-1.47.2-.51.65-2.7.65-3.12 0-.18.11-.54.25-.8.14-.27.25-.63.25-.8 0-.19.08-.29.17-.23.1.06.16-.08.16-.32V1.5H50.35c-27.47 0-29 .01-29.07.3m64.92.67c-.11.53-.2 1.2-.2 1.48 0 .29-.07.55-.15.58-.17.06-.68 2.82-.68 3.64 0 .27-.08.5-.17.5-.1 0-.17.19-.17.42 0 .24-.07.74-.15 1.13-.09.38-.24 1.37-.34 2.2-.25 1.98-.48 3.3-.76 4.41-.12.5-.27 1.37-.33 1.92-.06.55-.2 1.34-.33 1.75-.12.41-.3 1.31-.41 2-.11.69-.3 1.66-.43 2.17a32.49 32.49 0 0 0-.67 3.66c-.06.5-.2 1.3-.33 1.75-.12.46-.3 1.32-.4 1.92-.1.6-.3 1.57-.43 2.17-.13.6-.32 1.53-.42 2.08l-.33 1.67c-.08.36-.23 1.23-.33 1.91-.1.7-.3 1.67-.42 2.17-.13.5-.32 1.44-.42 2.08-.1.65-.28 1.5-.4 1.92a11.8 11.8 0 0 0-.34 1.67 30.9 30.9 0 0 1-.67 3.66c-.13.5-.32 1.48-.43 2.17-.1.69-.3 1.59-.41 2a12.1 12.1 0 0 0-.33 1.83c-.06.6-.2 1.42-.33 1.84a20.9 20.9 0 0 0-.42 2c-.11.68-.3 1.66-.42 2.16a31.34 31.34 0 0 0-.69 3.75c-.06.55-.2 1.3-.33 1.65-.13.35-.23.86-.23 1.12v.48h27.31l.19-1.2c.1-.67.3-1.81.42-2.55.23-1.34.36-2.18.84-5.5l.4-2.75c.08-.5.22-1.53.32-2.3.1-.75.22-1.44.27-1.53.06-.09.17-.74.26-1.45.08-.72.31-2.31.5-3.55.19-1.24.41-2.86.5-3.6.08-.74.23-1.55.32-1.8l.17-.43h4.39c4.7 0 4.67 0 4.44.6a17.7 17.7 0 0 0-.33 2.36c-.1 1.07-.28 2.48-.4 3.12-.13.64-.32 1.95-.43 2.92-.1.96-.3 2.35-.42 3.08a55.45 55.45 0 0 0-.66 4.83c-.05.65-.2 1.8-.34 2.59-.13.78-.32 2.09-.42 2.91-.1.83-.28 2.07-.42 2.76-.13.69-.24 1.3-.24 1.37 0 .07 6.18.12 13.73.12h13.73l.1-.52c.06-.28.1-.87.1-1.3 0-.42.11-1.63.24-2.68.13-1.05.32-2.89.43-4.08.1-1.2.25-2.77.34-3.5.08-.73.23-2.3.33-3.5.3-3.8.5-5.95.75-8 .14-1.1.27-2.5.3-3.13l.05-1.12h-1.86c-1.02 0-2.55-.05-3.4-.11l-1.55-.11.09-1.48c.1-1.87-.24-1.7 3.7-1.77l3.38-.05.18-1.2c.1-.66.22-2.1.28-3.2.06-1.1.2-2.86.33-3.91.12-1.06.3-2.82.4-3.92.1-1.1.27-2.71.36-3.58.3-2.65.48-4.6.73-7.92.13-1.74.31-3.7.4-4.33.1-.64.26-2.3.37-3.67.2-2.67.43-4.08.67-4.08.09 0 .15-.38.15-.84V1.5H86.4l-.2.97m65.07-.7c-.06.14-.1.73-.1 1.3 0 1.64-.2 3.6-.36 3.5-.08-.05-.15.57-.16 1.38 0 .8-.04 1.65-.08 1.88-.03.23-.15 2.18-.26 4.34a31.98 31.98 0 0 1-.34 4c-.13.1-.36 3-.58 7.53-.06 1.16-.17 1.92-.26 1.86-.1-.06-.14.24-.12.71.02.45 0 .93-.06 1.06a59 59 0 0 0-.28 4.75c0 .21-.05.26-.13.14-.07-.1-.1.6-.07 1.55.04 1.02 0 1.73-.1 1.73-.09 0-.2.84-.26 1.88-.3 5.58-.45 7.54-.6 7.6-.1.02-.18.6-.18 1.32 0 .7-.07 2.1-.16 3.1-.1 1.02-.21 2.66-.27 3.64-.05 1-.16 1.75-.25 1.7-.08-.05-.15.38-.15.96 0 1.62-.17 4.72-.34 6.42a32.6 32.6 0 0 0-.16 2.67 3.7 3.7 0 0 1-.15 1.3c-.36.4-.38 2.5-.03 2.53.19.01.38-.05.44-.13.06-.1 5.18-.16 13.06-.16h12.96l.11-1.54c.06-.85.22-4.84.36-8.87.14-4.04.32-8.35.41-9.59a60 60 0 0 0 .17-4c0-.96.08-3.1.17-4.75.25-4.52.51-10.2.67-14.58l.32-8 .35-8.67c.1-2.52.24-4.92.33-5.33.08-.41.15-1.37.16-2.13V1.5h-11.98c-10.77 0-12 .03-12.08.26m31.67 2.11c-.06 1.31-.16 5.27-.21 8.8a80 80 0 0 1-.25 6.5c-.08.05-.26 6.39-.4 14.08a373.6 373.6 0 0 1-.4 14.08c-.08.05-.18 2.67-.24 5.84-.32 17.37-.32 17.59-.1 17.37.18-.16 6.33-.2 29.62-.2h29.4l-.13-3.44-.11-3.43 3.87.06 3.87.05-.12-1.66a7.47 7.47 0 0 0-.24-1.75 13.2 13.2 0 0 1-.22-2.25c-.23-5.06-.48-8.5-.6-8.58a7.6 7.6 0 0 1-.22-1.92c-.21-5.2-.53-10.51-.64-10.59-.12-.08-.38-3.9-.6-8.75a9.31 9.31 0 0 0-.23-2.08c-.12-.08-.4-4.02-.6-8.8a8.77 8.77 0 0 0-.22-2.03c-.07 0-.17-1.11-.23-2.46-.06-1.35-.15-3.15-.21-4l-.11-1.54h-6.79v-.51c0-.3-.07-.47-.16-.41-.14.08-.28-2.9-.21-4.54 0-.17-5.45-.21-26.7-.21h-26.71l-.1 2.38m138.33-1.75c.06.34.2.82.33 1.07.12.25.22.64.22.86 0 .23.09.63.19.89s.28 1.1.4 1.88c.14.78.35 1.9.5 2.5.14.6.32 1.46.41 1.92l.42 1.92c.14.6.37 1.76.5 2.58.12.82.3 1.73.4 2 .24.75.52 2.04.52 2.43 0 .19.1.7.23 1.12.13.43.31 1.2.4 1.7a163.06 163.06 0 0 0 1.53 7.42c.1.55.3 1.45.43 2s.35 1.67.5 2.5c.14.82.36 1.9.49 2.41.12.5.31 1.37.42 1.92.1.55.3 1.41.42 1.92.12.5.27 1.29.33 1.75.06.45.17 1.05.25 1.33.07.27.26 1.1.41 1.83.15.74.46 2.12.67 3.09.22.96.44 2.16.5 2.66s.21 1.26.34 1.67c.31 1.06.58 2.28.58 2.68 0 .19.1.7.23 1.12.13.43.31 1.2.41 1.7l.45 2.25.41 2.17c.08.45.21 1.1.3 1.41.09.32.25 1.04.36 1.59a101.89 101.89 0 0 0 .75 3.45l.1.46h31.4c20.84 0 31.42.06 31.42.17 0 .1.23.17.52.17h.52l-.12-.96c-.07-.53-.18-1-.26-1.05-.13-.08-.3-.64-.61-2-.06-.22-.15-.45-.22-.5a7.91 7.91 0 0 1-.66-2.31c0-.2-.06-.35-.14-.35-.07 0-.23-.47-.35-1.04-.13-.58-.37-1.36-.54-1.75a8.72 8.72 0 0 1-.48-1.59c-.1-.48-.24-.9-.33-.93-.09-.03-.16-.16-.16-.3 0-.6-.59-2.65-.79-2.77-.12-.08-.21-.35-.21-.62 0-.45-.07-.66-.6-1.92a6.52 6.52 0 0 1-.32-1.2c-.15-.94.02-.91-5.42-.8-2.52.05-10.25.13-17.18.18l-12.6.08-.18-.63a54.1 54.1 0 0 1-.55-2.21 26 26 0 0 0-.57-2.17 14.7 14.7 0 0 1-.58-2.33c0-.23 33.6-.23 33.75 0 .19.3.91.2.91-.14 0-.37-.34-1.4-.5-1.53a6.4 6.4 0 0 1-.4-1.33 8.12 8.12 0 0 0-.43-1.42 2.07 2.07 0 0 1-.22-.66c-.2-1.15-.48-2.09-.6-2.09-.13 0-.21-.28-.45-1.5-.05-.22-.17-.46-.28-.53-.11-.07-.13-.13-.04-.13.08 0 .07-.1-.04-.2a.84.84 0 0 1-.2-.52c0-.54-.55-2.62-.69-2.62-.07 0-.18-.28-.24-.62-.05-.35-.2-.95-.33-1.34-.12-.39-.17-.7-.1-.7.06 0 0-.07-.12-.15-.12-.08-.33-.66-.46-1.29s-.31-1.17-.4-1.2c-.1-.03-.16-.2-.16-.38 0-.32-.12-.33-4.13-.24-2.27.05-9.76.13-16.65.18-13.64.1-13.05.13-13.06-.81 0-.2-.16-.89-.34-1.53a32.98 32.98 0 0 1-.99-4.27c0-.21 32.12-.19 32.25.02.06.1.3.17.53.17.44 0 .5-1.05.09-1.32-.13-.09-.34-.86-.65-2.4-.05-.24-.14-.45-.2-.45-.07 0-.22-.45-.34-1-.12-.55-.3-1-.38-1-.09 0-.1-.15-.05-.33.06-.19.04-.34-.04-.34a6.2 6.2 0 0 1-.55-2.1c.01-.05-.1-.2-.27-.34s-.2-.2-.06-.12c.2.1.22.08.07-.11-.1-.13-.32-.86-.5-1.62a4.81 4.81 0 0 0-.43-1.37c-.1 0-.35-.9-.38-1.36a.47.47 0 0 0-.13-.24c-.07-.07-.13-.34-.13-.6 0-.26-.07-.47-.15-.47-.1 0-.25-.45-.36-1l-.2-1H321.2l.1.63m-61.72.7c0 .55.08.81.2.77.13-.05.22.38.28 1.29.05.75.18 2.05.29 2.9.1.85.15 1.65.1 1.8-.11.29-1.76.35-2.04.07-.11-.1-1.48-.15-3.74-.12l-3.58.04.06.92c.03.5.11.95.18 1 .07.05.22 1.5.32 3.25.11 1.74.32 4.25.45 5.58.14 1.33.32 3.36.41 4.5.09 1.15.28 3.21.41 4.59.15 1.37.37 4.17.5 6.21.14 2.04.28 3.78.33 3.85.07.12.17 1.26.58 6.69.08.96.22 2.46.32 3.33.17 1.5.3 2.97.7 8.17l.27 3.12.1.88H266v1.2c0 .67.08 1.48.17 1.8.1.32.26 1.87.37 3.45l.2 2.88h30.71c30.26 0 30.72 0 30.72-.32 0-.18-.13-.87-.27-1.54a50 50 0 0 1-.4-1.97c-.07-.42-.27-1.47-.46-2.34-.2-.87-.5-2.44-.7-3.5-.54-2.93-.62-3.32-.9-4.66a129.7 129.7 0 0 1-1.19-5.92c-.12-.73-.35-1.93-.5-2.67a59.5 59.5 0 0 1-.42-2.08c-.06-.41-.25-1.31-.4-2a37.2 37.2 0 0 1-.52-2.67c-.13-.78-.32-1.8-.43-2.26l-.2-.85-6.06-.1c-5.4-.09-14.35-.01-14.81.13-.2.06-.06 1.67.33 3.67.14.73.37 2.21.5 3.3.14 1.07.29 2.02.34 2.1.05.09.16.67.25 1.3.08.62.2 1.41.27 1.76l.11.62h-3.84c-2.39 0-3.89-.06-3.95-.17-.07-.1-2.45-.16-6.6-.16h-6.49l-.02-.88-.02-1.16c0-.16-.06-.25-.13-.21-.14.09-.26-.82-.5-3.84a7.05 7.05 0 0 0-.32-2.05c-.1-.03-.17-.55-.17-1.17 0-.66-.1-1.26-.23-1.45a8.33 8.33 0 0 1-.42-2.08c-.11-.96-.3-2.3-.44-3-.12-.68-.27-1.92-.33-2.75-.05-.82-.2-2.06-.33-2.75-.13-.68-.32-2.03-.42-3-.1-.96-.28-2.38-.41-3.16a45.7 45.7 0 0 1-.33-2.25c-.05-.46-.13-1.12-.2-1.46l-.1-.63h20.23c19.23 0 20.23 0 20.19-.29a98.43 98.43 0 0 1-.55-3.13 8.1 8.1 0 0 0-.32-1.31c-.1-.27-.2-1.06-.22-1.75-.02-.7-.09-1.3-.15-1.35-.11-.09-.43-1.89-.6-3.33-.04-.42-.15-.8-.23-.85-.13-.08-.33-1.23-.59-3.36-.05-.44-.16-.8-.24-.8-.08 0-.15-.14-.15-.33 0-.33-.1-.33-27.64-.33h-27.64l.02.83M50 18.57c0 .18-1.04 4.28-1.25 4.95-.14.43-.25.9-.25 1.04 0 .25-.44.27-4.08.27-2.25 0-4.09-.03-4.09-.08 0-.13.68-2.81.85-3.36.09-.29.27-.96.41-1.5l.32-1.18c.08-.2 8.09-.34 8.09-.14m66.78.89-.2 1.79c-.05.46-.22 1.45-.36 2.2l-.27 1.38h-4.08c-3.81 0-4.06-.01-3.96-.29.06-.16.19-.89.28-1.62.38-3.08.45-3.53.56-3.96l.12-.46h8.01l-.1.96m101.94-.59c.06.21.1 1.88.1 3.71 0 1.84.08 4.65.17 6.25.1 1.6.17 4.12.17 5.59 0 1.46.08 4.39.17 6.5.09 2.1.19 5.09.22 6.62l.06 2.8h-10.73l-.11-3.97a847 847 0 0 1-.43-22.33V18.5h10.29l.1.38M43.7 43.75c.06.05 0 .37-.12.7-.12.35-.3 1.07-.41 1.62-.11.55-.3 1.27-.42 1.59-.12.32-.33 1.07-.46 1.66l-.23 1.09-4.15-.05a90.04 90.04 0 0 1-4.2-.1 50.9 50.9 0 0 1 1.04-4.37c.14-.46.25-.97.25-1.12 0-.14.09-.45.2-.69l.19-.42h4.1c2.27 0 4.16.04 4.21.09"/>
    <path fill="#921426" d="M321.01 2.7c-.12.52-.33.99-.45 1.04-.13.04-.23.25-.23.45s-.04.32-.1.26c-.06-.06-.48.66-.93 1.6a58.8 58.8 0 0 1-.97 1.95c-1.5 2.51-1.94 4.51-1.33 6.08.11.28.26.88.33 1.34a98.43 98.43 0 0 0 .55 3.12c.04.28-.96.3-20.2.3l-20.22-.01.1.63c.07.34.15 1 .2 1.46.05.45.2 1.47.33 2.25s.31 2.2.41 3.16c.1.97.29 2.32.42 3 .13.7.28 1.93.33 2.75.06.83.2 2.07.33 2.75.13.7.33 2.04.44 3 .11.97.28 1.87.38 2.02.16.23 1.21.26 9.6.28 10.05.02 10.2.02 9.88.15-.12.04-.21.2-.21.32 0 .3-.47 1.22-.78 1.53-.2.21-.3.58-.24.93.02.08-.12.26-.31.39s-.34.32-.34.42c0 .27-.66 1.6-.85 1.72-.08.05-.15.28-.15.5 0 .23-.07.41-.17.41-.09 0-.16.08-.16.18 0 .1.08.12.19.05.12-.07.15-.04.07.08-.06.1-.18.16-.26.1-.19-.1-.3.08-.4.68-.06.27-.17.52-.27.55-.1.03-.13.12-.07.2.05.1 0 .16-.1.16s-.14.08-.08.17c.06.09.04.16-.03.16-.08 0-.24.25-.37.55-.13.3-.34.67-.48.82-.6.7-.12.8 4 .8h3.84l-.11-.63c-.07-.34-.19-1.13-.27-1.76a8 8 0 0 0-.25-1.28c-.05-.09-.2-1.04-.34-2.12a59.3 59.3 0 0 0-.5-3.3c-.3-1.54-.54-3.56-.43-3.67a35 35 0 0 1 3.18-.08c3.78 0 3.68.03 4.18-1.04.22-.48.46-.9.52-.96a16.4 16.4 0 0 0 1.31-2.8c0-.11.06-.2.14-.2.07 0 .35-.4.62-.91.68-1.31.54-1.67 1.57 3.75a8.1 8.1 0 0 0 .56 2.04c.1.07 2.15.12 4.54.12h4.34l.2.88c.12.48.31 1.51.44 2.3.12.77.35 1.97.51 2.66a43 43 0 0 1 .41 2 89 89 0 0 0 .41 2.08c.16.74.39 1.94.51 2.67.21 1.28.61 3.26 1.18 5.92.3 1.34.37 1.73.91 4.66.2 1.06.5 2.63.7 3.5.19.87.4 1.92.46 2.34.07.4.25 1.3.4 1.97.15.67.27 1.36.27 1.54 0 .31-.46.32-30.72.32h-30.72l-.2-2.88c-.1-1.58-.26-3.13-.36-3.45a8.32 8.32 0 0 1-.17-1.8v-1.2h-10.3l-.1-.88c-.04-.48-.17-1.89-.26-3.12-.4-5.2-.53-6.67-.7-8.17-.1-.87-.24-2.37-.31-3.33-.42-5.43-.52-6.57-.6-6.7-.04-.06-.18-1.8-.32-3.84-.13-2.04-.35-4.84-.5-6.21-.13-1.38-.32-3.44-.4-4.59-.1-1.14-.28-3.17-.42-4.5a168.6 168.6 0 0 1-.45-5.62 19.3 19.3 0 0 0-.34-3.21c-.07 0-.15-.28-.16-.63-.02-.54-.03-.55-.08-.12-.04.28-.17.88-.3 1.33-.25.87-.54 2.15-.69 3-.05.28-.15.73-.23 1-.08.28-.27 1.14-.43 1.92-.27 1.38-.6 2.87-1.16 5.25-.15.64-.37 1.79-.5 2.55a6.72 6.72 0 0 1-.38 1.58c-.09.11-.21.54-.28.95-.3 1.98-.37 2.28-.56 2.62-.24.44-.25 1.63-.03 2.97.1.55.25 2.16.34 3.58a313.63 313.63 0 0 0 .56 7.33c.13.75.26 2.71.36 5.17.05 1.33.12 2.57.16 2.77.04.19.15 1.5.25 2.91.1 1.41.2 2.87.24 3.24.1.88.4 4.76.6 7.66a105 105 0 0 0 .31 3.67c.09.73.2 2.27.26 3.42.19 3.74.31 5.23.5 5.8.12.4 1.24.73 1.66.5.16-.1.36-.1.48-.02.24.18.95.17 1.25-.02.13-.08.3-.06.4.04.13.13.28.13.5.01.22-.12.38-.12.53 0 .14.13.26.12.4-.01.14-.14.24-.14.41 0 .17.14.28.14.43 0 .15-.16.24-.16.39-.01.13.14.28.14.51.02.21-.12.39-.12.5-.02.09.1.4.11.76.03.71-.17 1.03.1 1.03.87 0 .25.08.5.17.56.1.05.17.4.17.77 0 .79.48 5.79.59 6.11.15.47.63-.13 1.35-1.73l.98-2.18c.13-.29.24-.64.24-.78s.08-.3.17-.36c.1-.06.17-.47.17-.93v-.82l1.2-.02c5.82-.12 11.67-.05 11.82.13.09.1.23 1.08.32 2.17.17 2.16.57 5.02.73 5.18.05.05.1 0 .1-.1 0-.13.38-.2 1.15-.2 1.32 0 1.86-.31 2.44-1.44.17-.35.48-.9.67-1.22 1.3-2.15 1.6-2.85 1.54-3.6-.02-.44.04-.8.15-.87.22-.14 12.8-.16 12.93-.03.04.05.16.8.27 1.67.1.87.3 2.18.43 2.91a15 15 0 0 1 .25 1.76c0 .84-.18.83 9.02.83h8.63l.47-.6c.25-.34.6-.73.75-.88.16-.14.3-.36.3-.48 0-.11.05-.21.12-.21.08 0 .27-.23.44-.52.17-.3.43-.65.58-.8a9.29 9.29 0 0 0 1.19-1.58c0-.12 1.47-2.06 1.64-2.17.17-.1.65 1.45.77 2.49a24.79 24.79 0 0 0 .48 2.79c.02.15.1.34.16.4s.11.29.11.5V88h57.05l1.1-.96c.6-.52 1.16-1.05 1.24-1.16a.48.48 0 0 1 .36-.21c.12 0 .25-.06.28-.14.06-.14 1.12-1.1 2.89-2.61 1.2-1.04 2.5-2.2 3.12-2.78.25-.25.53-.47.62-.5.08-.03.66-.5 1.28-1.06 3.26-2.9 4.21-3.73 4.87-4.23.29-.22.93-.78 1.43-1.25a88.4 88.4 0 0 1 1.74-1.58c1.48-1.3 4.23-1.19-30.74-1.19h-31.4l-.1-.45c-.04-.26-.19-.91-.31-1.46-.13-.55-.32-1.45-.43-2-.11-.55-.27-1.27-.36-1.59a20.3 20.3 0 0 1-.3-1.41l-.41-2.17-.45-2.25c-.1-.5-.28-1.27-.4-1.7a5.55 5.55 0 0 1-.24-1.12c0-.4-.27-1.62-.58-2.68a9.88 9.88 0 0 1-.33-1.67c-.06-.5-.3-1.7-.5-2.66-.22-.97-.53-2.35-.68-3.09a43.3 43.3 0 0 0-.41-1.83c-.08-.27-.2-.88-.25-1.33-.06-.46-.2-1.25-.33-1.75s-.32-1.37-.42-1.92c-.1-.55-.3-1.41-.43-1.92-.12-.5-.34-1.59-.49-2.41-.14-.83-.36-1.95-.49-2.5s-.32-1.45-.43-2A163.06 163.06 0 0 1 325.8 23c-.1-.5-.28-1.27-.4-1.7a5.55 5.55 0 0 1-.24-1.12c0-.39-.28-1.68-.53-2.43a19.4 19.4 0 0 1-.4-2 36.6 36.6 0 0 0-.49-2.58 63.1 63.1 0 0 1-.42-1.92c-.09-.46-.27-1.32-.41-1.92a50.7 50.7 0 0 1-.5-2.5 23.14 23.14 0 0 0-.79-3.41c-.09-.28-.22-.77-.28-1.09l-.1-.58-.24.95M79 2.47c0 .18-.11.54-.25.8-.14.27-.25.63-.25.81 0 .43-.45 2.6-.65 3.12-.08.21-.2.87-.26 1.47s-.21 1.42-.34 1.83c-.12.41-.3 1.24-.41 1.83-.1.6-.27 1.39-.37 1.75-.31 1.17-.6 2.64-.71 3.67-.06.55-.21 1.3-.34 1.67-.12.36-.27.96-.32 1.33-.12.8-.35 1.92-.58 2.83-.1.37-.26 1.12-.36 1.67l-.33 1.67-.32 1.66c-.1.55-.27 1.3-.36 1.67-.1.37-.2.85-.25 1.08-.27 1.3.16 1.17-3.63 1.17h-3.4l-.18.7c-.26.97-.51 2.17-.52 2.42 0 .16.78.21 3.38.21h3.39l-.12.8c-.2 1.3-.45 2.59-.62 3.12-.09.27-.25 1.02-.36 1.67-.11.64-.3 1.5-.43 1.91a13 13 0 0 0-.33 1.67c-.05.5-.2 1.3-.32 1.75-.12.46-.3 1.32-.42 1.92-.1.6-.3 1.5-.42 2-.35 1.42-.56 2.5-.68 3.41-.06.46-.2 1.21-.33 1.67-.13.46-.34 1.4-.47 2.08a371.49 371.49 0 0 1-1.8 8.67c-.2.86-.46 2.11-.61 3.08l-.11.67-31.84.08c-17.5.05-31.85.1-31.87.13-.16.15.02.54.33.75.47.3 1.37 1.06 1.98 1.67.26.25.55.45.64.45.1 0 .17.1.17.21 0 .12.27.4.6.61.32.22.88.67 1.23 1 1.3 1.2 2.43 2.19 2.8 2.45.22.15.67.54 1.02.87 1.03 1 3.03 2.77 3.33 2.95.31.18.83.61 1.5 1.25.24.23.96.86 1.6 1.41.65.55 1.3 1.14 1.44 1.3.15.16.31.29.36.29.05 0 .43.33.85.75.41.4.82.75.92.75.09 0 .31.18.49.41l.33.42h28.83c31.8 0 29.04.1 29.04-1 0-.27.07-.53.16-.58.1-.06.17-.44.17-.84 0-.4.07-.92.16-1.16.1-.23.28-1.2.42-2.13.34-2.27.5-2.82.68-2.37.07.18.32.56.56.84.24.29.54.7.68.9.14.21.34.48.46.6.11.12.2.29.2.37 0 .09.2.3.42.47.23.17.42.4.42.52 0 .1.32.6.7 1.08a35 35 0 0 1 1.37 1.84c.36.53.72.96.8.96.07 0 .13.11.13.25 0 .18.2.25.72.25.82 0 1.11-.52 1.11-1.96 0-.37.12-1.27.25-1.98.14-.72.25-1.55.25-1.83 0-1-.48-.96 11.64-.87 6.11.05 11.34.03 11.61-.03.28-.07.4-.13.27-.14-.17-.02-.2-.16-.1-.56.13-.6.36-2.45.52-4.13.13-1.4.24-1.49.7-.54.58 1.17.58 1.15 1.59 3.09.52.98.94 1.9.94 2.04 0 .28.43.32 3.25.33h1.83l.1.75c.05.4.38 1.35.72 2.08a21.17 21.17 0 0 1 1.17 2.69c.44 1.5 1.07 1.22 1.18-.53.16-2.33.46-4.65.65-4.89.15-.2 1.77-.22 9.68-.18 9.47.05 11.28.02 10.7-.12-.28-.08-.3-.22-.2-1.44l.26-4.3c.08-1.62.23-3.14.32-3.39.1-.24.17-.9.17-1.48 0-.95.13-2.8.5-6.84.08-.9.09-1.8.01-2-.08-.2-.23-.7-.34-1.1-.11-.42-.3-.95-.44-1.2-.23-.45-.23-.45.4-.5.76-.07 1-.7 1.03-2.69 0-.71.08-1.8.16-2.41.09-.62.24-2.24.34-3.62.1-1.38.3-3.63.43-5 .13-1.38.32-3.51.41-4.75.42-5.3.55-6.53.7-6.3.09.13.1-.04.04-.45-.05-.37 0-1.87.1-3.33.35-5.05.39-6.57.18-7.56-.23-1.04-.61-2.72-1.24-5.36l-.78-3.33c-.56-2.45-.62-2.7-.82-3.5-.25-.93-.48-2.05-.62-2.92a2.62 2.62 0 0 0-.25-.85c-.08-.1-.22-.63-.31-1.17-.64-3.69-.96-3.32-1.32 1.52-.1 1.38-.27 3.03-.36 3.67-.1.64-.28 2.59-.41 4.33-.25 3.31-.43 5.27-.73 7.92-.1.87-.25 2.48-.36 3.58-.1 1.1-.28 2.86-.4 3.92a73.96 73.96 0 0 0-.33 3.91c-.06 1.1-.18 2.54-.28 3.2l-.18 1.2-3.39.05c-3.93.06-3.59-.1-3.7 1.77l-.08 1.48 1.55.11c.85.06 2.38.11 3.4.11h1.86l-.05 1.13c-.03.61-.16 2.02-.3 3.12-.25 2.05-.45 4.2-.75 8a128 128 0 0 1-.33 3.5c-.09.73-.24 2.3-.34 3.5-.1 1.2-.3 3.03-.43 4.08a31.37 31.37 0 0 0-.23 2.68c0 .43-.05 1.02-.1 1.3l-.11.52h-13.73c-7.55 0-13.73-.05-13.73-.12 0-.06.1-.68.24-1.37.14-.7.33-1.93.42-2.76.1-.82.29-2.13.42-2.91.14-.78.29-1.95.34-2.59.1-1.31.32-2.87.66-4.83.13-.73.32-2.12.42-3.08.11-.97.3-2.28.42-2.92.13-.64.31-2.05.4-3.12.1-1.08.26-2.14.34-2.36.23-.6.26-.6-4.44-.6h-4.4l-.16.44c-.1.24-.24 1.05-.32 1.79-.09.74-.31 2.36-.5 3.6-.19 1.24-.42 2.83-.5 3.55-.09.71-.2 1.36-.26 1.45-.05.09-.17.78-.27 1.54l-.32 2.3-.4 2.74a187.1 187.1 0 0 1-.84 5.5c-.13.74-.32 1.88-.42 2.55l-.2 1.2h-27.3v-.48c0-.26.1-.77.23-1.12.12-.36.27-1.1.33-1.65.12-1.09.35-2.32.69-3.75.12-.5.3-1.48.42-2.16.11-.7.3-1.6.42-2 .13-.42.27-1.24.33-1.84.06-.6.2-1.42.33-1.83.12-.41.3-1.31.41-2 .11-.69.3-1.66.43-2.17.29-1.17.53-2.5.67-3.66.06-.5.2-1.26.33-1.67.13-.41.31-1.27.41-1.92.1-.64.29-1.58.42-2.08.12-.5.31-1.48.42-2.17.1-.68.25-1.55.33-1.91l.33-1.67c.1-.55.29-1.49.42-2.08.13-.6.32-1.57.42-2.17.1-.6.29-1.46.41-1.92.13-.45.27-1.24.33-1.75.14-1.15.38-2.48.67-3.66.13-.5.32-1.48.43-2.17.1-.69.3-1.59.41-2 .13-.41.27-1.23.34-1.82.06-.59.18-1.3.27-1.58.7-2.33.81-4.38.3-5.43l-.76-1.59c-.16-.36-.4-.72-.52-.8-.12-.07-.22-.28-.22-.46 0-.34-.27-.9-.62-1.28a1.83 1.83 0 0 1-.32-.68 4.64 4.64 0 0 0-.5-1.07 2.63 2.63 0 0 1-.39-.86.47.47 0 0 0-.17-.35 5.26 5.26 0 0 1-.83-1.74c0-.1-.08-.17-.18-.17-.1 0-.13-.07-.08-.16.06-.08.02-.2-.07-.26-.1-.06-.17.04-.17.22m96.2 2.25a83.9 83.9 0 0 0-.38 5.78c-.08 2.34-.23 6.13-.33 8.42l-.32 8.08c-.16 4.38-.42 10.07-.67 14.58-.1 1.65-.17 3.8-.17 4.75a60 60 0 0 1-.17 4 419.9 419.9 0 0 0-.41 9.59c-.14 4.03-.3 8.02-.36 8.87l-.1 1.54h-12.96c-14.32 0-13.53-.06-13.18 1.04l.95 3.05 1.06 3.41c.16.5.39 1.26.5 1.67.11.41.27.88.36 1.04.08.16.15.4.15.54 0 .32.13.33 3.5.33h2.74l.11.87c.06.47.14.92.2 1 .04.07.13.54.2 1.03.06.5.21 1.24.34 1.67.13.42.24.92.24 1.1 0 .77 1.65 1.32 1.9.64.06-.15.16-1.6.21-3.2.07-1.84.18-2.98.29-3.06a92 92 0 0 1 6.56-.12h6.37l.08.38c.04.2.11.93.16 1.61.3 4.35.43 4.67 1.87 4.67 1.36 0 1.35.02 1.44-3.25.35-11.7.47-14.85.6-15.78.09-.58.16-2.62.18-4.54 0-1.91.06-3.54.1-3.62.05-.07.16-2.74.25-5.93.08-3.19.23-7.75.32-10.13.1-2.38.24-6.58.33-9.33.1-2.75.25-6.38.35-8.06.13-2.2.13-3.35 0-4.1-.1-.56-.25-1.92-.34-3.02a151 151 0 0 0-.34-3.49c-.1-.82-.25-2.36-.34-3.42-.4-4.53-.47-5.13-.63-6.08a30.5 30.5 0 0 1-.26-2.48c-.05-.82-.12-1.51-.14-1.54-.03-.02-.15.64-.27 1.49m84.53-1.09c-.24.15-.63 1.29-.88 2.54-.4 2.1-.5 2.52-.68 2.85-.27.5.22.8 1.3.8 1.1.02 1.13-.05.87-2.11-.12-.9-.25-2.2-.31-2.91-.07-.93-.16-1.26-.3-1.17m-23.2 1.86c-.01.54.04.84.13.75.08-.08.09-.5.02-.9l-.13-.76-.02.91M350.5 18.48c0 .41.52 2.68.99 4.27.18.64.34 1.33.34 1.53.01.94-.57.9 13.06.85 12.99-.05 13.28-.06 13.28-.72 0-.13.1-.24.25-.24.13 0 .25-.07.25-.16 0-.08.45-.69 1-1.34.55-.66 1-1.25 1-1.31 0-.06.3-.42.65-.8 1.02-1.1 1.55-1.86 1.43-2.05-.13-.22-32.25-.25-32.25-.03m-308.58.23a12 12 0 0 0-.33 1.18 36.3 36.3 0 0 1-.41 1.5 59.6 59.6 0 0 0-.85 3.36c0 .05 1.84.08 4.09.08 3.64 0 4.08-.02 4.08-.27 0-.14.11-.61.25-1.04.21-.67 1.25-4.77 1.25-4.95 0-.2-8.02-.06-8.09.14m66.84.25c-.11.43-.18.88-.56 3.96-.1.73-.22 1.46-.28 1.62-.1.28.15.3 3.96.3h4.08l.27-1.38a34.65 34.65 0 0 0 .56-4l.1-.96h-8.01l-.12.46M208.39 29c.07 5.77.16 10.6.22 10.74.08.22.66.26 4.13.26h4.04l.13 2.96c.1 2.48.23 5.95.25 7.08 0 .25.18.3 1.23.3h1.22l-.06-2.8a354.9 354.9 0 0 0-.22-6.62c-.1-2.11-.17-5.04-.17-6.5 0-1.47-.08-3.98-.17-5.59-.1-1.6-.17-4.41-.17-6.25 0-1.83-.04-3.5-.1-3.7l-.09-.38h-10.35l.11 10.5m148.28 14.5c0 .27.36 1.7.58 2.33a26 26 0 0 1 .57 2.17 38 38 0 0 0 .55 2.2l.18.63h12.49c9.2 0 12.58-.05 12.85-.2.35-.18 2.12-1.97 3.53-3.55.36-.42.89-.96 1.16-1.2.27-.26.68-.68.91-.95.24-.27.6-.65.8-.85.28-.27.32-.4.17-.55-.25-.26-33.8-.29-33.8-.03m-321.47.6c-.1.23-.19.54-.19.68 0 .15-.11.66-.25 1.12a46.26 46.26 0 0 0-1.03 4.37c.02.03 1.91.07 4.19.1l4.15.05.23-1.09c.13-.6.34-1.34.46-1.66.12-.32.3-1.04.41-1.59.11-.55.3-1.27.42-1.61.3-.84.5-.8-4.08-.8h-4.11l-.2.42m173.51 1.24c0 .32.04.45.08.3a1.4 1.4 0 0 0 0-.59c-.04-.16-.07-.03-.07.3m31.53 21.58.11 3.41h-29.4c-26.02 0-29.43.03-29.62.25-.22.27-.07 2.2.42 5.5.13.83.28 2.44.34 3.59.06 1.14.2 2.45.31 2.91.12.46.22 1.32.24 1.92.02.6.12 1.63.22 2.3l.19 1.2H192v-3.23c0-2.8.04-3.25.26-3.34.61-.23 30.86-.1 31.06.13.11.14.22 1.42.3 3.33l.1 3.11h1.15c1.36 0 1.57-.15 1.8-1.28l.32-1.47c.1-.37.17-1.31.17-2.1 0-1.97-.35-1.84 5.12-1.81h10.49l.37-1.38a209.52 209.52 0 0 0 1.06-4.04l.3-1.17.39-1.33c.14-.46.35-1.25.46-1.75.11-.5.34-1.35.51-1.87.17-.53.3-1.08.3-1.24 0-.16.08-.52.16-.8a188.36 188.36 0 0 1 .86-3.04c.36-1.25.44-1.22-3.53-1.22h-3.53l.12 3.42m-15.2 26.91c0 .32.03.45.08.3.04-.16.04-.43 0-.59-.05-.16-.08-.03-.08.3m-1 .91c0 .46.04.63.08.37.04-.25.04-.63 0-.83-.04-.2-.07 0-.07.46m1.16 6.67c0 .36.03.5.07.29.04-.21.04-.51 0-.67-.04-.16-.07.01-.07.38m-52 2.5c0 .45.04.62.08.37.03-.25.03-.63 0-.83-.05-.2-.08 0-.08.46m51.5 5.66c0 .46.04.63.08.38.03-.26.03-.63 0-.84-.05-.2-.08 0-.08.46m-35 6.92c0 .41.03.58.07.38.04-.21.04-.55 0-.75-.03-.21-.07-.04-.07.37m35.17.42c0 .55.04.75.07.45.04-.3.04-.75 0-1s-.07 0-.06.55m-16.76 2.36c.2.04.5.04.66 0 .16-.04 0-.07-.37-.07s-.5.04-.3.08m-68.25.63c0 .36.04.5.08.29.04-.21.04-.51 0-.67-.04-.16-.08.01-.07.38m-.17 2.25c0 .32.03.45.07.29a1.4 1.4 0 0 0 0-.58c-.04-.16-.07-.03-.07.29m86.33.75c0 .36.04.5.08.29.04-.21.04-.51 0-.67-.05-.16-.08.01-.08.38m54-.09c0 .32.03.45.07.3.05-.16.05-.43 0-.59-.04-.16-.07-.03-.07.3m-70.65 2.33c0 .68.03.97.07.62.03-.34.03-.9 0-1.25-.04-.34-.07-.06-.07.63m-118.22 3.5c.28.27.55.5.6.5.05 0-.12-.23-.38-.5-.26-.28-.53-.5-.6-.5-.08 0 .1.22.38.5m8.63.62c4.25.03 11.15.03 15.34 0 4.18-.02.71-.04-7.72-.04-8.44 0-11.86.02-7.62.04m30.4 0c1.54.03 4.06.03 5.6 0 1.53-.03.27-.05-2.8-.05s-4.33.02-2.8.05m37.84 0c3.92.03 10.33.03 14.25 0 3.92-.02.71-.04-7.12-.04-7.84 0-11.05.02-7.13.04m27.42 0c1.67.03 4.4.03 6.08 0 1.68-.03.3-.05-3.04-.05-3.35 0-4.72.02-3.04.05m17.74 0c1.53.03 4.08.03 5.66 0 1.6-.03.34-.05-2.78-.05-3.11 0-4.41.02-2.88.05m21.41 0c4.14.03 10.97.03 15.17 0 4.2-.02.81-.04-7.53-.04s-11.78.02-7.64.04m30.26 0c1.45.03 3.81.03 5.25 0 1.45-.03.27-.05-2.62-.05s-4.07.02-2.63.05m18.91 0c1.58.03 4.2.03 5.83 0 1.64-.03.35-.05-2.86-.05-3.2 0-4.54.02-2.97.05"/>
  </g>
</svg>
