<svg id="svg" version="1.1" xmlns="http://www.w3.org/2000/svg" xmlns:xlink="http://www.w3.org/1999/xlink" width="400" height="129.375" viewBox="0, 0, 400,129.375"><g id="svgg"><path id="path0" d="M177.539 27.167 C 177.539 27.488,177.573 27.619,177.615 27.458 C 177.657 27.298,177.657 27.035,177.615 26.875 C 177.573 26.715,177.539 26.846,177.539 27.167 M177.045 39.333 C 177.045 39.746,177.078 39.915,177.118 39.708 C 177.157 39.502,177.157 39.165,177.118 38.958 C 177.078 38.752,177.045 38.921,177.045 39.333 M208.728 43.167 C 208.728 44.129,208.756 44.523,208.790 44.042 C 208.823 43.560,208.823 42.773,208.790 42.292 C 208.756 41.810,208.728 42.204,208.728 43.167 M176.881 42.917 C 176.882 43.375,176.915 43.543,176.953 43.289 C 176.991 43.036,176.990 42.661,176.951 42.456 C 176.911 42.251,176.880 42.458,176.881 42.917 M247.167 44.333 C 247.167 44.608,247.229 44.833,247.304 44.833 C 247.380 44.833,247.409 44.608,247.369 44.333 C 247.329 44.058,247.267 43.833,247.231 43.833 C 247.196 43.833,247.167 44.058,247.167 44.333 M388.542 45.843 C 388.244 46.122,388.000 46.399,388.000 46.458 C 388.000 46.517,388.262 46.311,388.583 46.000 C 389.117 45.483,389.240 45.332,389.125 45.334 C 389.102 45.335,388.840 45.563,388.542 45.843 M217.042 48.417 C 217.044 48.783,217.078 48.914,217.118 48.706 C 217.158 48.499,217.156 48.199,217.115 48.040 C 217.073 47.880,217.040 48.050,217.042 48.417 M176.705 49.000 C 176.705 49.321,176.740 49.452,176.782 49.292 C 176.823 49.131,176.823 48.869,176.782 48.708 C 176.740 48.548,176.705 48.679,176.705 49.000 M176.205 61.333 C 176.205 61.654,176.240 61.785,176.282 61.625 C 176.323 61.465,176.323 61.202,176.282 61.042 C 176.240 60.881,176.205 61.012,176.205 61.333 M176.039 68.667 C 176.039 68.987,176.073 69.119,176.115 68.958 C 176.157 68.798,176.157 68.535,176.115 68.375 C 176.073 68.215,176.039 68.346,176.039 68.667 M175.879 70.833 C 175.879 71.246,175.911 71.415,175.951 71.208 C 175.991 71.002,175.991 70.665,175.951 70.458 C 175.911 70.252,175.879 70.421,175.879 70.833 M249.667 77.833 C 249.667 78.108,249.729 78.333,249.804 78.333 C 249.880 78.333,249.909 78.108,249.869 77.833 C 249.829 77.558,249.767 77.333,249.731 77.333 C 249.696 77.333,249.667 77.558,249.667 77.833 M88.524 81.555 C 88.402 81.702,88.340 81.918,88.388 82.036 C 88.442 82.171,88.479 82.142,88.487 81.958 C 88.499 81.684,89.155 81.667,99.792 81.664 C 106.002 81.663,111.170 81.606,111.275 81.539 C 111.381 81.472,106.355 81.388,100.106 81.352 C 89.837 81.294,88.724 81.313,88.524 81.555 M116.535 81.525 C 117.074 81.678,120.749 81.693,120.597 81.542 C 120.528 81.473,119.500 81.417,118.312 81.417 C 117.125 81.417,116.325 81.465,116.535 81.525 M124.358 81.554 C 124.240 81.696,124.174 82.060,124.212 82.364 L 124.280 82.917 124.307 82.292 L 124.333 81.667 133.958 81.655 C 139.252 81.649,143.712 81.592,143.868 81.530 C 144.025 81.468,139.747 81.390,134.362 81.356 C 125.683 81.303,124.548 81.325,124.358 81.554 M149.727 81.539 C 149.831 81.606,151.130 81.663,152.612 81.664 L 155.308 81.667 155.362 83.042 C 155.392 83.798,155.364 85.204,155.299 86.167 C 155.169 88.081,154.902 94.275,154.673 100.667 C 154.532 104.582,154.412 106.646,154.239 108.083 L 154.159 108.750 145.038 108.750 L 135.917 108.750 135.707 111.833 C 135.592 113.529,135.411 116.098,135.305 117.542 L 135.112 120.167 128.139 120.167 L 121.167 120.167 121.168 119.292 C 121.169 118.810,121.247 117.935,121.343 117.347 C 121.438 116.758,121.586 115.220,121.672 113.930 C 122.033 108.461,122.163 106.807,122.243 106.678 C 122.289 106.603,122.406 105.126,122.501 103.396 C 122.597 101.666,122.746 99.650,122.831 98.917 C 122.917 98.183,123.034 96.758,123.091 95.750 C 123.148 94.742,123.262 93.279,123.346 92.500 C 123.429 91.721,123.498 90.394,123.499 89.552 C 123.499 88.709,123.571 87.976,123.657 87.923 C 123.743 87.869,123.852 87.509,123.899 87.121 C 124.046 85.912,124.177 82.934,124.080 83.031 C 124.029 83.082,123.918 84.158,123.833 85.423 C 123.651 88.128,123.104 88.788,122.575 86.939 C 122.459 86.531,122.275 86.106,121.410 84.250 C 121.068 83.517,120.738 82.692,120.676 82.417 C 120.598 82.076,120.525 82.500,120.444 83.750 C 120.379 84.758,120.293 85.921,120.253 86.333 C 120.214 86.746,120.095 87.983,119.989 89.083 C 119.884 90.183,119.770 91.177,119.737 91.292 C 119.690 91.455,117.637 91.500,110.190 91.500 L 100.703 91.500 100.610 91.875 C 100.558 92.081,100.465 92.944,100.401 93.792 L 100.286 95.333 109.832 95.333 L 119.379 95.333 119.276 96.875 C 118.804 103.970,118.670 105.775,118.521 107.083 C 118.266 109.309,117.997 112.635,117.996 113.583 C 117.995 114.042,117.883 115.092,117.748 115.917 C 117.612 116.742,117.501 117.917,117.501 118.528 C 117.500 119.139,117.454 119.758,117.399 119.903 C 117.308 120.141,115.691 120.169,100.941 120.186 C 91.944 120.197,84.358 120.263,84.083 120.333 C 83.808 120.403,83.703 120.469,83.849 120.480 C 84.189 120.505,84.862 121.082,84.719 121.225 C 84.660 121.285,84.731 121.333,84.878 121.333 C 85.024 121.333,85.192 121.483,85.250 121.667 C 85.308 121.850,85.501 122.078,85.678 122.173 C 85.855 122.268,86.000 122.443,86.000 122.562 C 86.000 122.682,86.188 122.865,86.417 122.970 C 86.664 123.082,86.833 123.299,86.833 123.501 C 86.833 123.711,86.993 123.902,87.250 124.000 C 87.479 124.087,87.667 124.240,87.667 124.339 C 87.667 124.438,87.573 124.465,87.458 124.399 C 87.344 124.332,87.475 124.504,87.750 124.780 C 88.025 125.055,88.282 125.255,88.321 125.223 C 88.456 125.111,88.980 126.064,88.880 126.240 C 88.825 126.337,88.841 126.362,88.915 126.295 C 89.052 126.171,89.667 126.768,89.667 127.026 C 89.667 127.103,89.781 127.167,89.921 127.167 C 90.160 127.167,90.591 127.921,90.523 128.221 C 90.506 128.296,90.572 128.308,90.671 128.247 C 90.770 128.186,91.090 128.370,91.384 128.655 L 91.917 129.173 107.401 129.172 C 115.917 129.171,122.905 129.151,122.929 129.127 C 122.996 129.059,123.162 126.543,123.187 125.208 C 123.199 124.544,123.266 124.000,123.337 124.000 C 123.505 124.000,123.729 124.524,123.682 124.808 C 123.661 124.932,123.724 124.984,123.822 124.924 C 123.920 124.863,124.000 124.898,124.000 125.000 C 124.000 125.102,124.087 125.133,124.192 125.067 C 124.299 125.001,124.340 125.021,124.284 125.111 C 124.229 125.201,124.292 125.483,124.425 125.739 C 124.558 125.995,124.667 126.300,124.667 126.415 C 124.667 126.531,124.813 126.729,124.992 126.855 C 125.172 126.980,125.340 127.196,125.367 127.333 C 125.395 127.471,125.620 127.876,125.869 128.233 C 126.118 128.591,126.283 128.947,126.234 129.025 C 126.186 129.103,126.301 129.168,126.490 129.169 C 126.679 129.170,129.496 129.171,132.750 129.171 C 136.004 129.171,138.809 129.170,138.982 129.169 C 139.156 129.168,139.351 129.035,139.417 128.875 C 139.525 128.609,139.845 121.717,139.826 120.042 C 139.822 119.652,139.896 119.333,139.992 119.333 C 140.088 119.333,140.148 119.240,140.125 119.125 C 140.092 118.961,141.844 118.907,148.351 118.873 C 158.289 118.822,157.110 119.312,157.264 115.163 C 157.326 113.469,157.436 112.008,157.507 111.917 C 157.579 111.825,157.644 110.737,157.653 109.500 C 157.679 105.851,157.989 95.315,158.094 94.483 C 158.217 93.514,157.869 90.360,157.591 89.917 C 157.476 89.733,157.328 89.222,157.262 88.780 C 157.193 88.311,157.009 87.862,156.821 87.701 C 156.645 87.550,156.499 87.274,156.498 87.088 C 156.497 86.902,156.391 86.402,156.262 85.977 C 156.133 85.552,155.976 84.802,155.914 84.310 C 155.852 83.819,155.762 83.353,155.713 83.275 C 155.665 83.197,155.579 82.747,155.520 82.275 L 155.415 81.417 152.476 81.417 C 150.859 81.417,149.622 81.472,149.727 81.539 M158.900 81.459 C 158.786 81.537,158.678 82.684,158.614 84.515 C 158.557 86.127,158.459 87.590,158.397 87.765 C 158.311 88.008,158.332 88.039,158.485 87.899 C 158.620 87.775,158.719 86.721,158.785 84.690 L 158.885 81.667 165.385 81.667 L 171.885 81.667 171.776 85.792 C 171.716 88.060,171.594 93.929,171.505 98.833 C 171.415 103.737,171.294 108.144,171.235 108.625 L 171.128 109.500 172.054 109.500 C 173.233 109.500,173.164 109.700,173.189 106.224 C 173.201 104.588,173.276 103.167,173.356 103.065 C 173.436 102.964,173.484 102.214,173.462 101.399 C 173.440 100.584,173.440 98.192,173.462 96.083 C 173.503 92.098,173.494 91.889,173.273 91.535 C 173.200 91.417,173.099 90.592,173.050 89.702 C 172.996 88.714,172.867 87.932,172.718 87.695 C 172.474 87.306,172.231 85.674,172.069 83.333 C 172.021 82.646,171.948 81.918,171.906 81.716 L 171.831 81.348 165.457 81.341 C 161.951 81.338,159.001 81.391,158.900 81.459 M192.208 81.444 C 192.050 81.508,192.009 82.294,192.038 84.722 L 192.076 87.917 192.125 84.792 L 192.174 81.667 207.754 81.667 L 223.333 81.667 223.352 82.625 C 223.363 83.152,223.430 84.521,223.502 85.667 C 223.620 87.557,223.626 87.474,223.566 84.767 C 223.525 82.901,223.430 81.700,223.313 81.559 C 223.127 81.335,192.756 81.223,192.208 81.444 M227.372 81.528 C 227.242 81.658,227.165 82.258,227.163 83.158 C 227.161 83.942,227.085 84.883,226.994 85.250 C 226.903 85.617,226.756 86.277,226.667 86.718 C 226.578 87.158,226.391 87.632,226.253 87.771 C 226.114 87.910,226.000 88.206,226.000 88.429 C 226.000 88.651,225.921 88.833,225.823 88.833 C 225.726 88.833,225.685 88.896,225.732 88.972 C 225.779 89.048,225.719 89.441,225.598 89.847 C 225.338 90.714,225.127 92.776,225.129 94.417 C 225.133 97.431,225.349 108.370,225.424 109.333 C 225.471 109.929,225.543 111.450,225.584 112.713 C 225.669 115.310,225.782 115.667,226.519 115.667 C 227.008 115.667,227.124 116.497,226.682 116.833 C 226.465 116.998,225.859 120.149,225.967 120.545 C 226.032 120.783,226.163 124.726,226.180 126.958 L 226.197 129.167 226.640 129.168 C 231.978 129.189,257.397 129.152,257.534 129.123 C 257.722 129.084,258.210 128.304,258.754 127.177 C 258.906 126.862,259.206 126.346,259.419 126.032 C 259.633 125.718,259.768 125.357,259.719 125.230 C 259.671 125.104,259.707 125.000,259.799 125.000 C 259.892 125.000,260.123 124.756,260.314 124.458 L 260.661 123.917 260.693 124.500 C 260.711 124.821,260.708 125.358,260.686 125.693 C 260.665 126.028,260.727 126.351,260.824 126.411 C 260.922 126.471,261.000 127.065,261.000 127.750 C 261.000 128.427,261.076 129.027,261.168 129.084 C 262.058 129.634,274.609 129.081,274.255 128.507 C 274.216 128.444,274.311 128.272,274.467 128.125 C 274.950 127.668,275.954 126.228,276.424 125.319 C 276.565 125.046,276.755 124.868,276.845 124.924 C 276.935 124.979,276.989 124.963,276.966 124.887 C 276.914 124.720,278.192 122.825,278.566 122.515 C 278.713 122.392,278.833 122.155,278.833 121.988 C 278.833 121.820,278.934 121.623,279.056 121.550 C 279.179 121.477,279.364 121.267,279.468 121.083 C 279.633 120.792,279.657 120.834,279.664 121.417 C 279.669 121.877,279.718 122.010,279.821 121.847 C 280.013 121.545,280.126 122.410,280.245 125.083 C 280.334 127.099,280.465 128.574,280.589 128.958 C 280.690 129.272,293.128 129.249,293.542 128.935 C 293.702 128.813,293.833 128.673,293.833 128.624 C 293.833 128.575,294.040 128.311,294.292 128.038 C 294.544 127.764,295.087 127.153,295.500 126.679 C 295.912 126.205,296.456 125.594,296.708 125.320 C 296.960 125.046,297.167 124.793,297.167 124.757 C 297.167 124.721,297.392 124.467,297.667 124.192 C 297.942 123.917,298.167 123.574,298.167 123.429 C 298.167 123.285,298.279 123.167,298.417 123.167 C 298.554 123.167,298.667 123.108,298.667 123.037 C 298.667 122.892,299.292 122.169,300.538 120.877 L 301.380 120.004 301.171 118.711 C 301.056 117.999,300.966 117.135,300.971 116.792 C 300.975 116.448,300.913 116.167,300.833 116.167 C 300.753 116.167,300.691 116.035,300.695 115.875 C 300.713 115.245,300.321 111.599,300.226 111.510 C 300.000 111.299,300.609 117.813,300.842 118.093 C 301.091 118.394,300.975 120.255,300.708 120.233 C 300.594 120.224,297.514 120.205,293.863 120.192 L 287.227 120.167 287.033 118.875 C 286.926 118.165,286.798 116.833,286.748 115.917 C 286.698 115.000,286.549 113.425,286.418 112.417 C 286.004 109.249,285.833 107.574,285.833 106.689 L 285.833 105.833 282.159 105.833 L 278.485 105.833 278.576 106.375 C 278.719 107.226,278.987 110.027,279.178 112.667 C 279.274 113.996,279.448 115.425,279.565 115.843 C 279.755 116.519,279.806 117.099,279.893 119.583 C 279.909 120.026,279.847 120.244,279.708 120.233 C 279.594 120.224,276.546 120.205,272.936 120.192 L 266.372 120.167 266.273 119.708 C 266.218 119.456,266.094 118.020,265.998 116.517 C 265.901 115.013,265.780 113.714,265.727 113.630 C 265.634 113.478,265.511 111.956,265.167 106.683 C 265.069 105.180,264.948 103.885,264.899 103.805 C 264.850 103.725,264.704 102.030,264.575 100.038 C 264.114 92.912,264.018 91.664,263.921 91.508 C 263.823 91.348,263.562 87.935,263.342 83.917 C 263.277 82.725,263.211 82.064,263.195 82.448 C 263.180 82.833,263.092 83.193,263.000 83.250 C 262.908 83.307,262.833 83.466,262.833 83.604 C 262.833 83.742,262.641 84.281,262.405 84.802 C 262.170 85.324,261.744 86.275,261.459 86.917 C 260.960 88.038,260.571 88.564,260.343 88.423 C 260.284 88.386,260.267 89.064,260.304 89.928 L 260.373 91.500 250.745 91.500 L 241.118 91.500 241.226 92.775 C 241.285 93.476,241.333 94.342,241.333 94.698 L 241.333 95.347 250.125 95.333 C 254.960 95.326,259.304 95.323,259.778 95.326 L 260.640 95.333 260.728 96.375 C 260.776 96.948,260.896 98.579,260.995 100.000 C 261.295 104.310,261.914 112.105,262.167 114.750 C 262.255 115.667,262.369 117.260,262.422 118.292 L 262.518 120.167 245.701 120.167 L 228.884 120.167 228.737 117.292 C 228.656 115.710,228.588 113.329,228.586 112.000 L 228.583 109.583 238.214 109.540 L 247.844 109.497 247.797 107.624 L 247.750 105.750 238.052 105.707 C 228.999 105.667,228.349 105.645,228.270 105.374 C 228.223 105.214,228.134 103.283,228.072 101.083 C 228.010 98.883,227.929 97.032,227.893 96.969 C 227.857 96.906,227.753 94.619,227.662 91.886 C 227.571 89.153,227.449 85.735,227.391 84.292 L 227.285 81.667 232.268 81.650 C 235.008 81.641,237.438 81.578,237.667 81.509 C 237.896 81.441,235.719 81.371,232.830 81.354 C 228.859 81.331,227.527 81.373,227.372 81.528 M264.333 81.500 C 263.646 81.546,266.008 81.621,269.583 81.667 L 276.083 81.750 276.286 83.000 L 276.489 84.250 276.419 83.016 C 276.380 82.337,276.266 81.700,276.166 81.599 C 275.976 81.410,266.838 81.333,264.333 81.500 M283.289 81.528 C 283.179 81.595,283.118 81.965,283.145 82.400 C 283.191 83.150,282.892 83.847,281.600 86.000 C 281.407 86.321,281.103 86.872,280.923 87.225 C 280.587 87.885,279.539 88.877,279.320 88.742 C 279.253 88.700,279.236 88.813,279.283 88.993 C 279.332 89.181,279.220 89.508,279.018 89.765 C 278.825 90.011,278.667 90.303,278.667 90.415 C 278.667 90.527,278.479 90.820,278.250 91.068 C 278.021 91.315,277.833 91.623,277.833 91.753 C 277.833 91.901,277.734 91.951,277.568 91.888 C 277.303 91.786,277.321 93.028,277.607 94.542 L 277.693 95.000 281.100 95.000 L 284.508 95.000 284.410 93.625 C 284.356 92.869,284.241 91.745,284.155 91.128 C 283.873 89.113,283.650 86.963,283.445 84.292 L 283.243 81.667 289.675 81.667 L 296.107 81.667 296.324 83.007 C 296.444 83.744,296.575 84.314,296.615 84.273 C 296.760 84.129,296.272 81.500,296.096 81.478 C 295.379 81.388,283.439 81.435,283.289 81.528 M175.379 83.167 C 175.379 83.579,175.411 83.748,175.451 83.542 C 175.491 83.335,175.491 82.998,175.451 82.792 C 175.411 82.585,175.379 82.754,175.379 83.167 M88.091 83.875 C 88.026 84.265,87.910 85.183,87.832 85.917 C 87.754 86.650,87.642 87.438,87.584 87.667 C 87.493 88.023,87.504 88.040,87.666 87.787 C 87.770 87.625,87.921 86.875,88.002 86.121 C 88.083 85.367,88.201 84.394,88.264 83.958 C 88.406 82.976,88.253 82.902,88.091 83.875 M276.527 85.583 C 276.521 85.950,276.619 86.737,276.746 87.333 L 276.977 88.417 276.883 87.417 C 276.831 86.867,276.733 86.079,276.664 85.667 L 276.539 84.917 276.527 85.583 M296.686 85.657 C 296.639 86.234,297.418 90.105,297.623 90.312 C 297.815 90.505,297.832 90.471,297.738 90.096 C 297.677 89.852,297.616 89.433,297.602 89.165 C 297.589 88.897,297.485 88.585,297.372 88.472 C 297.259 88.359,297.159 88.000,297.151 87.675 C 297.134 87.047,296.720 85.249,296.686 85.657 M321.381 86.631 C 321.412 86.836,321.525 87.092,321.632 87.198 C 321.779 87.346,321.807 87.298,321.750 87.000 C 321.648 86.468,321.304 86.124,321.381 86.631 M260.039 87.500 C 260.039 87.821,260.073 87.952,260.115 87.792 C 260.157 87.631,260.157 87.369,260.115 87.208 C 260.073 87.048,260.039 87.179,260.039 87.500 M223.785 90.208 C 223.907 93.096,224.000 93.126,224.000 90.278 C 224.000 88.990,223.933 88.000,223.845 88.000 C 223.754 88.000,223.729 88.895,223.785 90.208 M277.209 89.583 C 277.211 89.950,277.245 90.080,277.285 89.873 C 277.324 89.666,277.323 89.366,277.281 89.206 C 277.239 89.047,277.207 89.217,277.209 89.583 M137.650 90.462 L 137.217 90.517 137.114 92.717 C 137.058 93.927,136.929 95.517,136.828 96.251 C 136.727 96.984,136.669 97.959,136.698 98.417 L 136.750 99.250 138.778 99.297 L 140.806 99.343 140.897 98.297 C 141.038 96.667,141.234 92.874,141.242 91.583 L 141.250 90.417 139.667 90.411 C 138.796 90.409,137.888 90.431,137.650 90.462 M206.016 90.481 C 205.821 90.609,205.799 91.258,205.889 94.359 C 205.948 96.407,205.997 98.515,205.998 99.042 L 206.000 100.000 207.708 99.998 C 208.648 99.996,209.585 99.950,209.792 99.895 L 210.167 99.794 210.167 95.165 L 210.167 90.536 209.792 90.455 C 209.102 90.305,206.253 90.325,206.016 90.481 M297.688 91.417 C 297.687 91.875,297.748 92.550,297.824 92.917 C 297.948 93.517,297.962 93.468,297.969 92.417 C 297.973 91.775,297.912 91.100,297.833 90.917 C 297.728 90.671,297.690 90.803,297.688 91.417 M298.019 94.792 C 298.009 95.365,298.057 95.833,298.126 95.833 C 298.196 95.833,298.229 95.477,298.201 95.042 C 298.120 93.775,298.040 93.666,298.019 94.792 M224.000 97.740 C 224.000 99.436,224.052 100.001,224.208 100.003 C 224.362 100.004,224.357 100.043,224.191 100.148 C 224.066 100.227,224.033 100.334,224.118 100.386 C 224.202 100.438,224.246 101.230,224.217 102.146 C 224.184 103.150,224.230 103.853,224.331 103.915 C 224.443 103.984,224.500 102.944,224.500 100.843 C 224.500 98.736,224.441 97.667,224.325 97.667 C 224.210 97.667,224.188 97.331,224.261 96.688 C 224.334 96.037,224.309 95.672,224.186 95.595 C 224.053 95.513,224.000 96.121,224.000 97.740 M298.222 97.530 C 298.280 98.281,298.404 98.971,298.497 99.064 C 298.590 99.157,298.667 99.575,298.668 99.992 C 298.670 101.057,298.858 102.500,298.994 102.500 C 299.057 102.500,299.087 102.294,299.061 102.042 C 299.035 101.790,298.934 100.871,298.838 100.000 C 298.742 99.129,298.652 98.063,298.638 97.632 C 298.624 97.200,298.561 96.879,298.497 96.918 C 298.434 96.958,298.417 96.805,298.460 96.578 C 298.510 96.316,298.462 96.167,298.328 96.167 C 298.167 96.167,298.142 96.487,298.222 97.530 M299.053 103.958 C 299.167 105.285,299.228 105.617,299.384 105.773 C 299.448 105.837,299.501 106.233,299.501 106.653 C 299.503 107.708,299.690 109.167,299.823 109.167 C 299.943 109.167,299.912 108.646,299.664 106.500 C 299.574 105.721,299.486 104.765,299.468 104.375 C 299.450 103.985,299.373 103.667,299.298 103.667 C 299.222 103.667,299.207 103.479,299.265 103.250 C 299.334 102.973,299.300 102.833,299.162 102.833 C 299.008 102.833,298.980 103.121,299.053 103.958 M224.520 107.847 C 224.531 109.444,224.597 111.763,224.668 113.000 C 224.751 114.462,224.767 113.470,224.714 110.167 C 224.669 107.371,224.603 105.052,224.566 105.014 C 224.530 104.976,224.509 106.251,224.520 107.847 M86.194 105.813 C 85.876 106.015,85.924 106.181,86.363 106.400 C 86.574 106.506,86.775 106.739,86.810 106.918 C 86.845 107.098,87.019 107.372,87.197 107.527 C 87.376 107.681,87.502 107.833,87.477 107.862 C 87.404 107.950,88.325 109.250,88.460 109.250 C 88.528 109.250,88.565 109.306,88.542 109.375 C 88.519 109.444,92.133 109.500,96.573 109.500 L 104.646 109.500 104.732 108.792 C 104.779 108.402,104.855 107.540,104.899 106.875 L 104.981 105.667 95.699 105.669 C 90.594 105.671,86.317 105.735,86.194 105.813 M206.003 114.042 C 206.004 117.572,206.059 118.732,206.245 119.250 C 206.407 119.700,206.488 119.798,206.493 119.552 C 206.497 119.351,206.574 119.141,206.665 119.085 C 206.764 119.023,206.785 119.103,206.717 119.283 C 206.626 119.524,206.651 119.548,206.844 119.401 C 207.313 119.044,207.658 118.995,207.550 119.300 C 207.469 119.531,207.492 119.545,207.675 119.375 C 207.799 119.260,208.166 119.176,208.492 119.186 L 209.083 119.206 208.583 119.333 C 208.086 119.460,208.086 119.461,208.708 119.480 C 209.314 119.499,209.334 119.519,209.343 120.125 C 209.421 125.244,209.505 129.060,209.540 129.093 C 209.740 129.283,222.875 129.202,222.757 129.012 C 222.704 128.926,222.737 128.809,222.831 128.752 C 222.924 128.694,223.000 128.423,223.000 128.149 C 223.000 127.874,223.110 127.437,223.245 127.177 C 223.482 126.719,223.739 125.547,223.942 124.003 C 223.997 123.593,224.137 123.180,224.254 123.087 C 224.371 122.993,224.507 122.654,224.555 122.333 C 224.603 122.013,224.712 121.435,224.797 121.050 C 225.005 120.110,225.459 120.167,217.669 120.167 L 210.866 120.167 210.799 119.292 C 210.763 118.810,210.717 116.917,210.697 115.083 C 210.677 113.250,210.615 111.244,210.559 110.625 L 210.457 109.500 208.228 109.500 L 206.000 109.500 206.003 114.042 M299.833 110.417 C 299.833 110.921,299.906 111.333,299.994 111.333 C 300.082 111.333,300.149 110.921,300.143 110.417 C 300.137 109.912,300.065 109.500,299.983 109.500 C 299.901 109.500,299.833 109.912,299.833 110.417 M189.469 110.514 C 189.415 111.802,189.402 111.921,189.285 112.110 C 189.222 112.212,189.175 113.823,189.181 115.690 C 189.187 117.556,189.186 119.327,189.179 119.625 L 189.167 120.167 173.514 120.167 C 157.887 120.167,157.170 120.185,157.496 120.579 C 157.591 120.693,157.691 121.153,157.719 121.601 C 157.747 122.050,157.860 122.580,157.969 122.781 C 158.077 122.981,158.167 123.265,158.167 123.412 C 158.167 123.558,158.267 123.845,158.389 124.048 C 158.512 124.251,158.630 124.717,158.653 125.083 C 158.676 125.450,158.763 125.821,158.847 125.908 C 158.931 125.995,159.000 126.244,159.000 126.460 C 159.000 126.696,159.071 126.809,159.178 126.743 C 159.276 126.683,159.339 126.734,159.318 126.858 C 159.298 126.982,159.330 127.196,159.391 127.333 C 159.451 127.471,159.529 127.846,159.565 128.167 C 159.600 128.487,159.638 128.798,159.648 128.857 C 159.658 128.916,159.787 129.011,159.935 129.067 C 160.250 129.188,189.463 129.209,189.658 129.088 C 189.800 129.001,189.726 110.004,189.584 109.862 C 189.538 109.816,189.486 110.109,189.469 110.514 M224.833 119.000 C 224.833 120.516,225.070 120.516,225.127 119.000 C 225.154 118.293,225.105 117.833,225.002 117.833 C 224.904 117.833,224.833 118.322,224.833 119.000 M191.985 122.873 C 191.969 125.938,192.009 129.064,192.066 129.122 C 192.187 129.242,205.078 129.156,205.200 129.033 C 205.281 128.952,205.383 128.405,205.425 127.818 C 205.467 127.230,205.538 126.563,205.584 126.333 C 205.629 126.104,205.678 125.523,205.693 125.042 C 205.707 124.560,205.791 124.167,205.878 124.167 C 205.965 124.167,205.989 124.045,205.932 123.896 C 205.874 123.746,205.896 123.540,205.980 123.437 C 206.064 123.334,206.159 122.575,206.191 121.750 L 206.250 120.250 199.125 120.207 L 192.000 120.163 191.985 122.873 " stroke="none" fill="#004f60" fill-rule="evenodd"></path><path id="path1" d="M111.333 81.493 C 111.171 81.602,107.112 81.662,99.811 81.664 L 88.539 81.667 88.438 82.042 C 88.383 82.248,88.337 82.679,88.337 83.000 C 88.336 83.321,88.261 84.146,88.169 84.833 C 88.078 85.521,87.960 86.439,87.908 86.873 C 87.856 87.307,87.714 87.763,87.592 87.885 C 87.351 88.125,87.314 88.405,86.989 92.417 C 86.870 93.883,86.711 95.125,86.636 95.176 C 86.506 95.266,86.254 97.542,86.053 100.455 C 86.001 101.210,85.899 101.791,85.827 101.746 C 85.708 101.672,85.541 103.099,85.451 104.972 L 85.417 105.693 95.199 105.673 L 104.982 105.652 104.900 106.868 C 104.855 107.536,104.779 108.402,104.732 108.792 L 104.646 109.500 94.740 109.500 L 84.833 109.500 84.821 109.875 C 84.814 110.081,84.777 110.400,84.739 110.583 C 84.673 110.901,84.341 114.511,84.336 114.968 C 84.335 115.088,84.258 115.140,84.167 115.083 C 84.063 115.019,83.995 115.348,83.987 115.948 C 83.980 116.481,83.946 117.067,83.911 117.250 C 83.876 117.433,83.798 118.183,83.737 118.917 L 83.628 120.250 100.432 120.204 C 113.448 120.168,117.265 120.111,117.365 119.954 C 117.437 119.842,117.496 119.225,117.498 118.583 C 117.500 117.942,117.612 116.742,117.748 115.917 C 117.883 115.092,117.995 114.042,117.996 113.583 C 117.997 112.635,118.266 109.309,118.521 107.083 C 118.670 105.775,118.804 103.970,119.276 96.875 L 119.379 95.333 109.832 95.333 L 100.286 95.333 100.401 93.792 C 100.465 92.944,100.558 92.081,100.610 91.875 L 100.703 91.500 110.190 91.500 C 117.637 91.500,119.690 91.455,119.737 91.292 C 119.789 91.114,119.984 89.227,120.250 86.333 C 120.288 85.921,120.364 84.871,120.419 84.000 C 120.474 83.129,120.552 82.254,120.593 82.055 C 120.664 81.704,120.609 81.691,118.541 81.594 C 113.502 81.357,111.575 81.331,111.333 81.493 M143.917 81.496 C 143.733 81.577,139.262 81.649,133.981 81.655 L 124.379 81.667 124.259 82.625 C 124.194 83.152,124.081 84.506,124.010 85.634 C 123.938 86.775,123.797 87.770,123.691 87.876 C 123.576 87.991,123.499 88.667,123.499 89.575 C 123.498 90.405,123.429 91.721,123.346 92.500 C 123.262 93.279,123.148 94.742,123.091 95.750 C 123.034 96.758,122.917 98.183,122.831 98.917 C 122.746 99.650,122.597 101.666,122.501 103.396 C 122.406 105.126,122.289 106.603,122.243 106.678 C 122.163 106.807,122.033 108.461,121.672 113.930 C 121.586 115.220,121.438 116.758,121.343 117.347 C 121.247 117.935,121.169 118.810,121.168 119.292 L 121.167 120.167 128.139 120.167 L 135.112 120.167 135.305 117.542 C 135.411 116.098,135.592 113.529,135.707 111.833 L 135.917 108.750 145.038 108.750 L 154.159 108.750 154.239 108.083 C 154.412 106.646,154.532 104.582,154.673 100.667 C 154.902 94.275,155.169 88.081,155.299 86.167 C 155.364 85.204,155.392 83.801,155.363 83.049 L 155.308 81.682 152.529 81.591 C 145.899 81.376,144.230 81.358,143.917 81.496 M237.667 81.502 C 237.438 81.574,235.008 81.641,232.268 81.650 L 227.285 81.667 227.391 84.292 C 227.449 85.735,227.571 89.153,227.662 91.886 C 227.753 94.619,227.857 96.906,227.893 96.969 C 227.929 97.032,228.010 98.883,228.072 101.083 C 228.134 103.283,228.223 105.214,228.270 105.374 C 228.349 105.645,228.999 105.667,238.052 105.707 L 247.750 105.750 247.797 107.624 L 247.844 109.497 238.214 109.540 L 228.583 109.583 228.586 112.000 C 228.588 113.329,228.656 115.710,228.737 117.292 L 228.884 120.167 245.701 120.167 L 262.518 120.167 262.422 118.292 C 262.369 117.260,262.255 115.667,262.167 114.750 C 261.914 112.105,261.295 104.310,260.995 100.000 C 260.896 98.579,260.776 96.948,260.728 96.375 L 260.640 95.333 259.778 95.326 C 259.304 95.323,254.960 95.326,250.125 95.333 L 241.333 95.347 241.333 94.698 C 241.333 94.342,241.285 93.476,241.226 92.775 L 241.118 91.500 250.726 91.500 L 260.333 91.500 260.333 90.342 C 260.333 89.704,260.265 88.823,260.182 88.383 C 260.098 87.943,259.945 86.421,259.842 85.000 C 259.738 83.579,259.616 82.172,259.569 81.873 L 259.484 81.329 248.784 81.350 C 242.898 81.362,237.896 81.430,237.667 81.502 M158.785 84.704 C 158.709 87.024,158.630 87.781,158.452 87.912 C 158.268 88.047,158.196 88.980,158.110 92.333 C 158.050 94.671,157.929 98.833,157.840 101.583 C 157.752 104.333,157.671 107.746,157.659 109.166 C 157.648 110.587,157.577 111.824,157.501 111.916 C 157.425 112.008,157.308 113.986,157.240 116.311 L 157.118 120.538 157.465 120.352 C 157.712 120.220,162.294 120.167,173.489 120.167 L 189.167 120.167 189.179 119.625 C 189.186 119.327,189.187 117.556,189.181 115.690 C 189.175 113.823,189.219 112.217,189.278 112.121 C 189.338 112.025,189.418 111.396,189.457 110.723 L 189.528 109.500 180.328 109.500 L 171.128 109.500 171.235 108.625 C 171.294 108.144,171.415 103.737,171.505 98.833 C 171.594 93.929,171.716 88.060,171.776 85.792 L 171.885 81.667 165.385 81.667 L 158.885 81.667 158.785 84.704 M192.110 86.292 C 192.050 88.835,192.001 97.496,192.000 105.538 L 192.000 120.160 199.180 120.205 L 206.361 120.250 206.243 119.583 C 206.179 119.217,206.096 116.798,206.058 114.208 L 205.990 109.500 208.223 109.500 L 210.457 109.500 210.559 110.625 C 210.615 111.244,210.677 113.250,210.697 115.083 C 210.717 116.917,210.763 118.809,210.799 119.288 L 210.865 120.160 217.873 120.205 L 224.881 120.250 224.772 116.833 C 224.712 114.954,224.616 111.317,224.560 108.750 C 224.504 106.183,224.392 104.000,224.311 103.899 C 224.231 103.797,224.189 102.992,224.218 102.109 C 224.248 101.175,224.200 100.433,224.102 100.335 C 223.988 100.222,224.012 100.166,224.175 100.164 C 224.334 100.162,224.354 100.120,224.233 100.039 C 224.110 99.957,224.017 98.271,223.951 94.917 C 223.897 92.167,223.775 89.242,223.680 88.417 C 223.584 87.592,223.459 85.735,223.402 84.292 L 223.298 81.667 207.759 81.667 L 192.220 81.667 192.110 86.292 M263.363 83.956 C 263.550 87.731,263.816 91.337,263.921 91.507 C 264.018 91.664,264.114 92.909,264.575 100.038 C 264.704 102.030,264.850 103.725,264.899 103.805 C 264.948 103.885,265.069 105.180,265.167 106.683 C 265.511 111.956,265.634 113.478,265.727 113.630 C 265.780 113.714,265.901 115.013,265.998 116.517 C 266.094 118.020,266.218 119.456,266.273 119.708 L 266.372 120.167 272.936 120.192 C 276.546 120.205,279.594 120.224,279.708 120.233 C 279.847 120.244,279.909 120.026,279.893 119.583 C 279.806 117.099,279.755 116.519,279.565 115.843 C 279.448 115.425,279.274 113.996,279.178 112.667 C 278.987 110.027,278.719 107.226,278.576 106.375 L 278.485 105.833 282.159 105.833 L 285.833 105.833 285.833 106.689 C 285.833 107.574,286.004 109.249,286.418 112.417 C 286.549 113.425,286.698 115.000,286.748 115.917 C 286.798 116.833,286.926 118.165,287.033 118.875 L 287.227 120.167 293.863 120.192 C 297.514 120.205,300.594 120.224,300.708 120.233 C 300.975 120.255,301.091 118.394,300.842 118.093 C 300.675 117.893,300.432 115.788,300.220 112.708 C 300.168 111.952,300.070 111.333,300.003 111.333 C 299.935 111.333,299.833 110.715,299.774 109.958 C 299.716 109.202,299.625 108.021,299.572 107.333 C 299.518 106.646,299.432 105.971,299.379 105.833 C 299.164 105.274,298.955 103.593,298.725 100.583 C 298.669 99.850,298.556 99.165,298.474 99.061 C 298.327 98.875,297.841 93.900,297.738 91.515 C 297.708 90.836,297.618 90.236,297.538 90.182 C 297.374 90.072,296.665 86.172,296.670 85.407 C 296.672 85.137,296.542 84.185,296.381 83.292 L 296.089 81.667 289.666 81.667 L 283.243 81.667 283.445 84.292 C 283.650 86.963,283.873 89.113,284.155 91.128 C 284.241 91.745,284.356 92.869,284.410 93.625 L 284.508 95.000 281.100 95.000 L 277.693 95.000 277.599 94.542 C 277.547 94.290,277.429 92.983,277.337 91.638 C 277.245 90.293,277.054 88.755,276.914 88.221 C 276.774 87.687,276.585 86.350,276.495 85.250 C 276.405 84.150,276.273 82.912,276.202 82.500 L 276.074 81.750 269.662 81.706 L 263.250 81.662 263.363 83.956 M141.242 91.583 C 141.234 92.874,141.038 96.667,140.897 98.297 L 140.806 99.343 138.778 99.297 L 136.750 99.250 136.698 98.417 C 136.669 97.959,136.727 96.984,136.828 96.251 C 136.929 95.517,137.058 93.927,137.114 92.717 L 137.217 90.517 137.650 90.462 C 137.888 90.431,138.796 90.409,139.667 90.411 L 141.250 90.417 141.242 91.583 M209.792 90.455 L 210.167 90.536 210.167 95.165 L 210.167 99.794 209.792 99.895 C 209.585 99.950,208.648 99.996,207.708 99.998 L 206.000 100.000 205.998 99.042 C 205.997 98.515,205.948 96.407,205.889 94.359 C 205.799 91.258,205.821 90.609,206.016 90.481 C 206.253 90.325,209.102 90.305,209.792 90.455 M173.381 100.750 C 173.382 101.208,173.415 101.376,173.453 101.123 C 173.491 100.869,173.490 100.494,173.451 100.289 C 173.411 100.084,173.380 100.292,173.381 100.750 " stroke="none" fill="#04d3fb" fill-rule="evenodd"></path><path id="path2" d="M21.277 1.792 C 21.233 1.952,21.152 2.290,21.096 2.542 C 21.040 2.794,20.920 3.000,20.830 3.000 C 20.740 3.000,20.667 3.146,20.667 3.325 C 20.667 3.791,20.193 5.545,20.037 5.656 C 19.904 5.751,19.601 6.894,19.404 8.042 C 19.345 8.385,19.240 8.667,19.170 8.667 C 19.101 8.667,18.956 9.060,18.848 9.542 C 18.500 11.090,18.453 11.248,18.310 11.343 C 18.176 11.430,17.913 12.447,17.719 13.624 C 17.670 13.921,17.578 14.131,17.513 14.092 C 17.449 14.052,17.301 14.484,17.186 15.051 C 17.070 15.619,16.880 16.233,16.762 16.417 C 16.645 16.600,16.506 16.975,16.453 17.250 C 16.224 18.448,15.963 19.333,15.839 19.333 C 15.765 19.333,15.654 19.745,15.591 20.247 C 15.528 20.750,15.407 21.205,15.322 21.257 C 15.236 21.310,15.167 21.530,15.167 21.746 C 15.167 21.963,15.062 22.352,14.933 22.611 C 14.590 23.307,14.333 24.211,14.333 24.730 C 14.333 24.981,14.266 25.145,14.184 25.094 C 14.029 24.998,13.984 25.138,13.669 26.708 C 13.563 27.235,13.407 27.667,13.322 27.667 C 13.236 27.667,13.167 27.887,13.167 28.157 C 13.167 28.426,13.092 28.693,13.000 28.750 C 12.908 28.807,12.833 29.106,12.833 29.415 C 12.833 29.723,12.733 30.077,12.610 30.199 C 12.370 30.439,12.247 30.854,11.954 32.417 C 11.851 32.967,11.706 33.459,11.632 33.510 C 11.473 33.622,11.000 35.372,11.000 35.851 C 11.000 36.036,10.930 36.143,10.845 36.091 C 10.673 35.984,10.616 36.144,10.314 37.583 C 10.198 38.133,10.054 38.621,9.993 38.667 C 9.883 38.750,9.766 39.173,9.513 40.417 C 9.438 40.783,9.247 41.330,9.089 41.632 C 8.786 42.212,8.700 42.521,8.679 43.113 C 8.672 43.313,8.566 43.577,8.442 43.701 C 8.319 43.824,8.166 44.223,8.103 44.588 C 7.877 45.902,7.587 46.921,7.379 47.137 C 7.262 47.258,7.167 47.512,7.167 47.701 C 7.167 48.152,6.802 49.391,6.636 49.508 C 6.564 49.559,6.402 50.148,6.275 50.818 C 6.148 51.488,5.970 52.084,5.880 52.143 C 5.789 52.202,5.613 52.767,5.489 53.398 C 5.365 54.030,5.182 54.630,5.083 54.732 C 4.902 54.918,4.333 57.067,4.333 57.566 C 4.333 57.713,4.268 57.833,4.189 57.833 C 4.109 57.833,3.956 58.227,3.848 58.708 C 3.500 60.256,3.453 60.415,3.310 60.509 C 3.176 60.597,2.913 61.613,2.719 62.790 C 2.670 63.088,2.578 63.298,2.514 63.259 C 2.450 63.219,2.299 63.651,2.178 64.218 C 2.057 64.786,1.866 65.400,1.754 65.583 C 1.641 65.767,1.506 66.142,1.453 66.417 C 1.225 67.608,0.963 68.500,0.841 68.500 C 0.769 68.500,0.659 68.819,0.597 69.208 C 0.535 69.598,0.439 70.095,0.385 70.314 C 0.291 70.692,0.314 70.705,0.851 70.576 C 1.162 70.501,15.704 70.398,33.167 70.345 L 64.917 70.250 65.025 69.583 C 65.184 68.610,65.432 67.356,65.636 66.500 C 65.734 66.087,65.894 65.356,65.991 64.875 C 66.087 64.394,66.242 63.644,66.334 63.208 C 66.745 61.268,67.214 58.984,67.436 57.833 C 67.569 57.146,67.781 56.208,67.907 55.750 C 68.033 55.292,68.183 54.542,68.241 54.083 C 68.355 53.173,68.572 52.086,68.922 50.667 C 69.046 50.163,69.236 49.262,69.344 48.667 C 69.451 48.071,69.638 47.208,69.759 46.750 C 69.879 46.292,70.025 45.504,70.084 45.000 C 70.142 44.496,70.291 43.746,70.414 43.333 C 70.538 42.921,70.729 42.058,70.839 41.417 C 70.949 40.775,71.110 40.025,71.197 39.750 C 71.365 39.218,71.623 37.927,71.820 36.625 L 71.940 35.833 68.553 35.833 C 65.953 35.833,65.168 35.785,65.171 35.625 C 65.176 35.372,65.433 34.171,65.689 33.208 L 65.877 32.500 69.268 32.500 C 73.065 32.500,72.635 32.638,72.897 31.333 C 72.943 31.104,73.057 30.617,73.150 30.250 C 73.243 29.883,73.404 29.133,73.507 28.583 C 73.610 28.033,73.757 27.283,73.833 26.917 C 73.910 26.550,74.057 25.800,74.160 25.250 C 74.263 24.700,74.424 23.950,74.518 23.583 C 74.752 22.669,74.982 21.547,75.100 20.750 C 75.154 20.383,75.299 19.783,75.422 19.417 C 75.546 19.050,75.697 18.301,75.757 17.753 C 75.870 16.724,76.157 15.251,76.469 14.083 C 76.568 13.717,76.735 12.929,76.840 12.333 C 76.946 11.737,77.133 10.912,77.255 10.500 C 77.377 10.087,77.529 9.262,77.593 8.667 C 77.656 8.071,77.774 7.410,77.854 7.197 C 78.046 6.689,78.499 4.508,78.501 4.083 C 78.502 3.900,78.614 3.535,78.751 3.273 C 78.888 3.010,79.000 2.649,79.000 2.471 C 79.000 2.293,79.075 2.193,79.167 2.250 C 79.261 2.308,79.333 2.168,79.333 1.927 L 79.333 1.500 50.345 1.500 C 22.877 1.500,21.352 1.515,21.277 1.792 M86.200 2.468 C 86.090 3.001,86.000 3.670,86.000 3.954 C 86.000 4.239,85.932 4.497,85.848 4.528 C 85.683 4.588,85.167 7.349,85.167 8.167 C 85.167 8.442,85.092 8.667,85.000 8.667 C 84.908 8.667,84.833 8.858,84.833 9.093 C 84.833 9.327,84.764 9.834,84.679 10.218 C 84.594 10.602,84.440 11.592,84.336 12.417 C 84.086 14.398,83.861 15.716,83.583 16.833 C 83.457 17.337,83.306 18.200,83.247 18.750 C 83.189 19.300,83.042 20.087,82.922 20.500 C 82.801 20.912,82.615 21.813,82.507 22.500 C 82.399 23.188,82.209 24.162,82.084 24.667 C 81.790 25.852,81.546 27.183,81.413 28.333 C 81.354 28.837,81.206 29.625,81.083 30.083 C 80.960 30.542,80.776 31.404,80.674 32.000 C 80.571 32.596,80.380 33.571,80.249 34.167 C 80.118 34.762,79.927 35.700,79.825 36.250 C 79.723 36.800,79.576 37.550,79.499 37.917 C 79.422 38.283,79.273 39.146,79.168 39.833 C 79.064 40.521,78.873 41.496,78.746 42.000 C 78.618 42.504,78.432 43.442,78.332 44.083 C 78.231 44.725,78.048 45.587,77.923 46.000 C 77.799 46.413,77.648 47.163,77.589 47.667 C 77.453 48.824,77.208 50.157,76.916 51.333 C 76.791 51.837,76.601 52.813,76.493 53.500 C 76.385 54.188,76.198 55.087,76.077 55.500 C 75.955 55.913,75.808 56.737,75.750 57.333 C 75.692 57.929,75.545 58.754,75.423 59.167 C 75.302 59.579,75.111 60.479,74.999 61.167 C 74.887 61.854,74.697 62.829,74.577 63.333 C 74.239 64.756,74.014 65.992,73.893 67.083 C 73.833 67.633,73.682 68.374,73.558 68.729 C 73.435 69.085,73.333 69.591,73.333 69.854 L 73.333 70.333 86.985 70.333 L 100.636 70.333 100.827 69.125 C 100.931 68.460,101.121 67.317,101.247 66.583 C 101.480 65.235,101.608 64.402,102.092 61.083 C 102.238 60.075,102.420 58.837,102.494 58.333 C 102.569 57.829,102.710 56.796,102.808 56.037 C 102.906 55.278,103.030 54.586,103.083 54.500 C 103.137 54.414,103.251 53.760,103.337 53.047 C 103.424 52.334,103.650 50.737,103.840 49.500 C 104.030 48.262,104.254 46.642,104.338 45.898 C 104.422 45.155,104.566 44.349,104.658 44.107 L 104.825 43.667 109.218 43.667 C 113.922 43.667,113.890 43.662,113.659 44.270 C 113.575 44.492,113.426 45.553,113.329 46.628 C 113.232 47.704,113.050 49.108,112.925 49.750 C 112.800 50.392,112.611 51.704,112.505 52.667 C 112.399 53.629,112.209 55.017,112.082 55.750 C 111.742 57.709,111.529 59.267,111.420 60.583 C 111.368 61.225,111.215 62.387,111.082 63.167 C 110.949 63.946,110.760 65.258,110.663 66.083 C 110.565 66.908,110.376 68.148,110.243 68.837 C 110.109 69.527,110.000 70.145,110.000 70.212 C 110.000 70.279,116.178 70.333,123.729 70.333 L 137.458 70.333 137.563 69.813 C 137.620 69.526,137.667 68.942,137.667 68.514 C 137.667 68.086,137.773 66.877,137.903 65.826 C 138.034 64.776,138.224 62.942,138.327 61.750 C 138.430 60.558,138.584 58.983,138.668 58.250 C 138.753 57.517,138.900 55.942,138.996 54.750 C 139.300 50.956,139.504 48.804,139.753 46.750 C 139.887 45.650,140.019 44.244,140.047 43.625 L 140.099 42.500 138.242 42.500 C 137.220 42.500,135.688 42.451,134.837 42.390 L 133.290 42.280 133.375 40.800 C 133.481 38.929,133.140 39.092,137.075 39.032 L 140.457 38.981 140.637 37.782 C 140.735 37.123,140.862 35.683,140.919 34.583 C 140.976 33.483,141.124 31.721,141.247 30.667 C 141.370 29.613,141.553 27.850,141.654 26.750 C 141.755 25.650,141.916 24.037,142.014 23.167 C 142.310 20.519,142.488 18.564,142.737 15.250 C 142.867 13.508,143.052 11.558,143.147 10.917 C 143.242 10.275,143.403 8.625,143.506 7.250 C 143.704 4.584,143.939 3.167,144.183 3.167 C 144.266 3.167,144.333 2.792,144.333 2.333 L 144.333 1.500 115.367 1.500 L 86.400 1.500 86.200 2.468 M151.268 1.764 C 151.212 1.909,151.167 2.497,151.167 3.072 C 151.167 4.707,150.966 6.666,150.809 6.568 C 150.731 6.520,150.660 7.141,150.653 7.948 C 150.645 8.756,150.610 9.604,150.574 9.833 C 150.539 10.063,150.420 12.012,150.311 14.167 C 150.201 16.321,150.048 18.125,149.972 18.177 C 149.841 18.265,149.614 21.175,149.386 25.704 C 149.328 26.862,149.224 27.619,149.131 27.561 C 149.039 27.504,148.988 27.800,149.008 28.274 C 149.026 28.719,149.001 29.196,148.950 29.333 C 148.877 29.534,148.697 32.557,148.668 34.083 C 148.664 34.291,148.615 34.344,148.539 34.224 C 148.472 34.117,148.442 34.811,148.474 35.765 C 148.507 36.792,148.466 37.500,148.372 37.500 C 148.285 37.500,148.168 38.344,148.113 39.375 C 147.813 44.964,147.656 46.920,147.502 46.972 C 147.408 47.003,147.333 47.588,147.333 48.296 C 147.333 48.993,147.259 50.393,147.168 51.407 C 147.077 52.421,146.957 54.056,146.902 55.042 C 146.846 56.040,146.735 56.792,146.651 56.740 C 146.567 56.688,146.499 57.115,146.498 57.698 C 146.494 59.319,146.329 62.418,146.156 64.118 C 146.070 64.963,146.000 66.166,146.000 66.793 C 146.000 67.420,145.934 68.005,145.853 68.092 C 145.491 68.482,145.467 70.593,145.824 70.620 C 146.009 70.634,146.204 70.575,146.257 70.489 C 146.315 70.395,151.442 70.333,159.318 70.333 L 172.284 70.333 172.391 68.792 C 172.451 67.944,172.611 63.950,172.749 59.917 C 172.886 55.883,173.074 51.571,173.165 50.333 C 173.257 49.096,173.332 47.296,173.332 46.333 C 173.332 45.371,173.407 43.233,173.499 41.583 C 173.750 37.065,174.012 31.375,174.172 27.000 C 174.250 24.846,174.392 21.246,174.487 19.000 C 174.581 16.754,174.739 12.854,174.837 10.333 C 174.935 7.813,175.084 5.412,175.167 5.000 C 175.251 4.587,175.322 3.631,175.326 2.875 L 175.333 1.500 163.351 1.500 C 152.579 1.500,151.359 1.527,151.268 1.764 M182.941 3.875 C 182.882 5.181,182.785 9.137,182.726 12.667 C 182.667 16.196,182.556 19.124,182.480 19.174 C 182.404 19.224,182.224 25.559,182.080 33.252 C 181.936 40.945,181.756 47.279,181.681 47.328 C 181.605 47.377,181.496 50.004,181.438 53.167 C 181.122 70.542,181.121 70.759,181.348 70.542 C 181.521 70.377,187.673 70.333,210.961 70.333 L 240.355 70.333 240.235 66.903 L 240.116 63.472 243.990 63.528 L 247.864 63.583 247.745 61.917 C 247.680 61.000,247.571 60.212,247.504 60.167 C 247.436 60.121,247.335 59.108,247.281 57.917 C 247.048 52.861,246.803 49.418,246.672 49.337 C 246.595 49.289,246.499 48.425,246.458 47.417 C 246.249 42.214,245.927 36.907,245.816 36.831 C 245.700 36.752,245.438 32.932,245.217 28.083 C 245.166 26.983,245.065 26.045,244.991 25.997 C 244.866 25.918,244.594 21.979,244.383 17.208 C 244.334 16.085,244.238 15.167,244.171 15.167 C 244.103 15.167,244.000 14.060,243.942 12.708 C 243.883 11.356,243.787 9.556,243.728 8.708 L 243.620 7.167 240.227 7.167 L 236.833 7.167 236.833 6.657 C 236.833 6.359,236.764 6.190,236.667 6.250 C 236.533 6.332,236.394 3.347,236.455 1.708 C 236.461 1.543,231.015 1.500,209.756 1.500 L 183.049 1.500 182.941 3.875 M321.284 2.125 C 321.337 2.469,321.482 2.953,321.607 3.200 C 321.731 3.448,321.833 3.836,321.833 4.064 C 321.833 4.292,321.915 4.689,322.015 4.947 C 322.115 5.206,322.301 6.054,322.429 6.833 C 322.556 7.612,322.775 8.737,322.915 9.333 C 323.056 9.929,323.244 10.792,323.333 11.250 C 323.423 11.708,323.612 12.571,323.753 13.167 C 323.895 13.762,324.116 14.925,324.245 15.750 C 324.374 16.575,324.553 17.475,324.643 17.750 C 324.888 18.499,325.167 19.793,325.167 20.179 C 325.167 20.367,325.272 20.872,325.401 21.302 C 325.529 21.732,325.713 22.496,325.808 23.000 C 326.341 25.815,326.716 27.687,326.909 28.500 C 327.029 29.004,327.217 29.867,327.328 30.417 C 327.439 30.967,327.634 31.867,327.761 32.417 C 327.888 32.967,328.109 34.092,328.252 34.917 C 328.396 35.742,328.618 36.829,328.745 37.333 C 328.872 37.837,329.063 38.700,329.168 39.250 C 329.274 39.800,329.462 40.662,329.587 41.167 C 329.711 41.671,329.861 42.458,329.920 42.917 C 329.979 43.375,330.089 43.975,330.165 44.250 C 330.241 44.525,330.428 45.350,330.581 46.083 C 330.734 46.817,331.037 48.204,331.253 49.167 C 331.469 50.129,331.695 51.329,331.755 51.833 C 331.814 52.337,331.964 53.087,332.087 53.500 C 332.403 54.562,332.667 55.779,332.667 56.179 C 332.667 56.367,332.772 56.872,332.901 57.302 C 333.029 57.732,333.214 58.496,333.312 59.000 C 333.409 59.504,333.609 60.517,333.757 61.250 C 333.904 61.983,334.090 62.958,334.170 63.417 C 334.249 63.875,334.385 64.512,334.470 64.833 C 334.556 65.154,334.717 65.867,334.828 66.417 C 334.939 66.967,335.132 67.867,335.257 68.417 C 335.382 68.967,335.527 69.623,335.579 69.875 L 335.673 70.333 367.087 70.333 C 387.918 70.333,398.500 70.389,398.500 70.500 C 398.500 70.592,398.734 70.667,399.019 70.667 L 399.538 70.667 399.419 69.708 C 399.353 69.181,399.236 68.711,399.159 68.663 C 399.034 68.585,398.860 68.017,398.547 66.667 C 398.494 66.438,398.396 66.212,398.331 66.167 C 398.172 66.056,397.667 64.293,397.667 63.849 C 397.667 63.657,397.607 63.500,397.534 63.500 C 397.462 63.500,397.301 63.031,397.178 62.458 C 397.055 61.885,396.812 61.098,396.639 60.708 C 396.466 60.318,396.250 59.605,396.159 59.124 C 396.068 58.643,395.920 58.225,395.830 58.194 C 395.740 58.164,395.667 58.025,395.667 57.885 C 395.667 57.298,395.085 55.239,394.884 55.117 C 394.765 55.043,394.667 54.766,394.667 54.500 C 394.667 54.045,394.604 53.843,394.077 52.583 C 393.962 52.308,393.816 51.764,393.753 51.374 C 393.601 50.445,393.771 50.470,388.333 50.580 C 385.813 50.632,378.081 50.710,371.152 50.755 L 358.555 50.837 358.367 50.210 C 358.264 49.866,358.017 48.871,357.820 48.000 C 357.622 47.129,357.367 46.154,357.252 45.833 C 357.027 45.208,356.667 43.768,356.667 43.498 C 356.667 43.269,390.276 43.272,390.417 43.500 C 390.606 43.807,391.333 43.694,391.333 43.358 C 391.333 42.993,390.993 41.953,390.835 41.833 C 390.774 41.787,390.591 41.188,390.427 40.500 C 390.264 39.813,390.072 39.175,390.002 39.083 C 389.932 38.992,389.834 38.692,389.783 38.417 C 389.572 37.270,389.298 36.333,389.174 36.333 C 389.054 36.333,388.970 36.053,388.728 34.837 C 388.683 34.610,388.557 34.367,388.448 34.298 C 388.339 34.228,388.321 34.171,388.408 34.169 C 388.495 34.168,388.477 34.077,388.367 33.967 C 388.257 33.857,388.167 33.624,388.167 33.449 C 388.167 32.914,387.621 30.833,387.480 30.833 C 387.408 30.833,387.302 30.552,387.245 30.208 C 387.187 29.865,387.039 29.265,386.914 28.875 C 386.789 28.485,386.739 28.166,386.802 28.164 C 386.865 28.163,386.816 28.098,386.693 28.020 C 386.569 27.941,386.361 27.361,386.229 26.730 C 386.097 26.100,385.916 25.558,385.828 25.528 C 385.739 25.497,385.667 25.326,385.667 25.147 C 385.667 24.831,385.552 24.824,381.542 24.912 C 379.273 24.961,371.781 25.041,364.892 25.089 C 351.246 25.185,351.841 25.221,351.828 24.280 C 351.826 24.080,351.671 23.392,351.485 22.750 C 351.024 21.164,350.500 18.890,350.500 18.477 C 350.500 18.268,382.621 18.291,382.750 18.500 C 382.807 18.592,383.046 18.667,383.282 18.667 C 383.717 18.667,383.784 17.625,383.366 17.347 C 383.239 17.262,383.030 16.489,382.721 14.958 C 382.670 14.706,382.578 14.500,382.515 14.500 C 382.453 14.500,382.302 14.050,382.180 13.500 C 382.058 12.950,381.888 12.500,381.801 12.500 C 381.715 12.500,381.692 12.350,381.750 12.167 C 381.808 11.983,381.791 11.833,381.712 11.833 C 381.580 11.833,381.088 9.973,381.158 9.739 C 381.175 9.683,381.053 9.525,380.886 9.389 C 380.720 9.253,380.696 9.199,380.833 9.270 C 381.031 9.370,381.045 9.347,380.900 9.157 C 380.800 9.025,380.575 8.298,380.400 7.542 C 380.226 6.786,380.030 6.167,379.966 6.167 C 379.870 6.167,379.622 5.264,379.591 4.806 C 379.587 4.744,379.527 4.638,379.458 4.569 C 379.390 4.501,379.333 4.232,379.333 3.972 C 379.333 3.713,379.262 3.500,379.175 3.500 C 379.088 3.500,378.928 3.050,378.820 2.500 L 378.623 1.500 349.905 1.500 L 321.188 1.500 321.284 2.125 M259.566 2.834 C 259.577 3.379,259.649 3.643,259.771 3.597 C 259.897 3.549,259.989 3.976,260.049 4.888 C 260.097 5.637,260.227 6.943,260.337 7.790 C 260.447 8.637,260.493 9.443,260.440 9.582 C 260.327 9.877,258.676 9.943,258.397 9.663 C 258.289 9.555,256.922 9.510,254.655 9.538 L 251.083 9.583 251.141 10.500 C 251.173 11.004,251.254 11.454,251.322 11.500 C 251.390 11.546,251.535 13.008,251.644 14.750 C 251.753 16.492,251.955 19.004,252.092 20.333 C 252.230 21.662,252.413 23.688,252.501 24.833 C 252.588 25.979,252.775 28.042,252.915 29.417 C 253.056 30.792,253.280 33.588,253.413 35.632 C 253.546 37.675,253.692 39.406,253.737 39.479 C 253.811 39.599,253.912 40.741,254.325 46.167 C 254.398 47.129,254.540 48.629,254.641 49.500 C 254.814 51.001,254.939 52.468,255.338 57.667 C 255.433 58.904,255.555 60.310,255.608 60.792 L 255.705 61.667 260.853 61.667 L 266.000 61.667 266.000 62.876 C 266.000 63.541,266.078 64.348,266.173 64.668 C 266.268 64.988,266.433 66.544,266.539 68.125 L 266.733 71.000 297.450 71.000 C 327.710 71.000,328.167 70.995,328.167 70.678 C 328.167 70.500,328.045 69.806,327.896 69.136 C 327.747 68.465,327.569 67.579,327.502 67.167 C 327.434 66.754,327.225 65.704,327.037 64.833 C 326.849 63.962,326.535 62.387,326.340 61.333 C 325.796 58.397,325.721 58.011,325.431 56.667 C 324.860 54.011,324.465 52.031,324.251 50.750 C 324.129 50.017,323.901 48.817,323.744 48.083 C 323.587 47.350,323.403 46.413,323.334 46.000 C 323.265 45.587,323.080 44.688,322.923 44.000 C 322.765 43.313,322.534 42.112,322.408 41.333 C 322.282 40.554,322.089 39.535,321.978 39.068 L 321.778 38.218 315.722 38.120 C 310.328 38.033,301.372 38.108,300.909 38.245 C 300.702 38.306,300.847 39.917,301.240 41.917 C 301.383 42.650,301.610 44.133,301.743 45.212 C 301.876 46.292,302.028 47.243,302.079 47.327 C 302.131 47.410,302.243 47.990,302.328 48.614 C 302.413 49.239,302.534 50.031,302.597 50.375 L 302.710 51.000 298.865 51.000 C 296.481 51.000,294.981 50.937,294.917 50.833 C 294.851 50.727,292.470 50.667,288.323 50.667 L 281.833 50.667 281.810 49.792 C 281.798 49.310,281.788 48.787,281.788 48.629 C 281.789 48.470,281.732 48.377,281.661 48.420 C 281.520 48.507,281.403 47.602,281.167 44.585 C 281.081 43.486,280.933 42.561,280.839 42.530 C 280.743 42.498,280.667 41.976,280.667 41.357 C 280.667 40.701,280.575 40.105,280.444 39.912 C 280.321 39.731,280.130 38.796,280.018 37.833 C 279.907 36.871,279.711 35.521,279.584 34.833 C 279.456 34.146,279.307 32.908,279.252 32.083 C 279.198 31.258,279.047 30.021,278.919 29.333 C 278.790 28.646,278.603 27.296,278.504 26.333 C 278.405 25.371,278.217 23.946,278.086 23.167 C 277.955 22.387,277.809 21.375,277.762 20.917 C 277.715 20.458,277.626 19.801,277.566 19.456 L 277.456 18.828 297.686 18.833 C 316.915 18.837,317.915 18.823,317.879 18.544 C 317.859 18.382,317.758 17.800,317.655 17.250 C 317.553 16.700,317.408 15.875,317.334 15.417 C 317.260 14.958,317.114 14.365,317.010 14.099 C 316.906 13.832,316.805 13.044,316.786 12.349 C 316.766 11.653,316.700 11.045,316.639 10.999 C 316.530 10.915,316.209 9.113,316.046 7.667 C 316.000 7.254,315.895 6.875,315.814 6.823 C 315.679 6.738,315.477 5.593,315.220 3.458 C 315.167 3.023,315.059 2.667,314.979 2.667 C 314.899 2.667,314.833 2.517,314.833 2.333 C 314.833 2.001,314.722 2.000,287.191 2.000 L 259.550 2.000 259.566 2.834 M50.000 18.568 C 50.000 18.750,48.964 22.848,48.748 23.522 C 48.612 23.947,48.500 24.416,48.500 24.564 C 48.500 24.805,48.065 24.833,44.417 24.833 C 42.171 24.833,40.333 24.798,40.333 24.754 C 40.333 24.617,41.006 21.939,41.178 21.391 C 41.269 21.103,41.455 20.428,41.592 19.891 C 41.729 19.355,41.874 18.823,41.915 18.708 C 41.985 18.513,50.000 18.373,50.000 18.568 M116.775 19.458 C 116.718 19.985,116.629 20.792,116.578 21.250 C 116.527 21.708,116.365 22.702,116.217 23.458 L 115.948 24.833 111.873 24.833 C 108.060 24.833,107.805 24.815,107.910 24.542 C 107.972 24.381,108.098 23.650,108.189 22.917 C 108.571 19.841,108.635 19.395,108.749 18.958 L 108.869 18.500 112.875 18.500 L 116.880 18.500 116.775 19.458 M218.724 18.875 C 218.776 19.081,218.819 20.750,218.820 22.583 C 218.820 24.417,218.897 27.229,218.990 28.833 C 219.084 30.438,219.162 32.950,219.163 34.417 C 219.165 35.883,219.239 38.808,219.329 40.917 C 219.419 43.025,219.518 46.006,219.550 47.542 L 219.607 50.333 214.244 50.333 L 208.881 50.333 208.767 46.375 C 208.476 36.245,208.339 29.134,208.336 24.042 L 208.333 18.500 213.482 18.500 L 218.631 18.500 218.724 18.875 M43.705 43.760 C 43.756 43.812,43.700 44.131,43.581 44.469 C 43.461 44.807,43.274 45.533,43.165 46.083 C 43.056 46.633,42.869 47.346,42.750 47.667 C 42.630 47.987,42.425 48.737,42.293 49.333 L 42.055 50.417 37.910 50.369 C 35.631 50.343,33.743 50.299,33.716 50.271 C 33.658 50.214,34.378 47.180,34.752 45.902 C 34.888 45.436,35.000 44.933,35.000 44.785 C 35.000 44.637,35.087 44.325,35.193 44.091 L 35.387 43.667 39.499 43.667 C 41.761 43.667,43.653 43.709,43.705 43.760 " stroke="none" fill="#fb2443" fill-rule="evenodd"></path><path id="path3" d="M321.013 2.700 C 320.887 3.222,320.683 3.689,320.559 3.736 C 320.435 3.784,320.333 3.988,320.333 4.189 C 320.333 4.391,320.286 4.508,320.228 4.450 C 320.170 4.393,319.753 5.111,319.300 6.048 C 318.848 6.984,318.410 7.862,318.328 8.000 C 316.827 10.513,316.392 12.511,317.004 14.083 C 317.111 14.358,317.260 14.958,317.334 15.417 C 317.408 15.875,317.553 16.700,317.655 17.250 C 317.758 17.800,317.859 18.382,317.879 18.544 C 317.915 18.823,316.915 18.837,297.686 18.833 L 277.456 18.828 277.566 19.456 C 277.626 19.801,277.715 20.458,277.762 20.917 C 277.809 21.375,277.955 22.387,278.086 23.167 C 278.217 23.946,278.405 25.371,278.504 26.333 C 278.603 27.296,278.790 28.646,278.919 29.333 C 279.047 30.021,279.198 31.258,279.252 32.083 C 279.307 32.908,279.456 34.146,279.584 34.833 C 279.711 35.521,279.907 36.871,280.018 37.833 C 280.130 38.796,280.303 39.702,280.402 39.847 C 280.564 40.082,281.611 40.113,290.000 40.128 C 300.049 40.146,300.194 40.148,299.875 40.277 C 299.760 40.323,299.667 40.471,299.667 40.605 C 299.667 40.907,299.204 41.820,298.895 42.129 C 298.684 42.340,298.589 42.708,298.654 43.063 C 298.669 43.143,298.528 43.316,298.340 43.447 C 298.153 43.578,298.000 43.770,298.000 43.873 C 298.000 44.135,297.338 45.478,297.152 45.592 C 297.069 45.644,297.000 45.869,297.000 46.093 C 297.000 46.317,296.925 46.500,296.833 46.500 C 296.742 46.500,296.667 46.579,296.667 46.677 C 296.667 46.774,296.753 46.799,296.859 46.734 C 296.979 46.660,297.006 46.688,296.931 46.810 C 296.865 46.918,296.746 46.965,296.667 46.917 C 296.482 46.803,296.373 46.987,296.262 47.594 C 296.214 47.862,296.097 48.107,296.003 48.138 C 295.908 48.169,295.874 48.264,295.925 48.348 C 295.977 48.431,295.936 48.500,295.833 48.500 C 295.731 48.500,295.693 48.575,295.750 48.667 C 295.807 48.758,295.792 48.833,295.717 48.833 C 295.642 48.833,295.477 49.077,295.350 49.375 C 295.222 49.673,295.006 50.047,294.869 50.205 C 294.267 50.904,294.748 51.000,298.876 51.000 L 302.710 51.000 302.597 50.375 C 302.534 50.031,302.413 49.239,302.328 48.614 C 302.243 47.990,302.131 47.410,302.079 47.327 C 302.028 47.243,301.876 46.292,301.743 45.212 C 301.610 44.133,301.383 42.650,301.240 41.917 C 300.936 40.368,300.702 38.354,300.812 38.243 C 300.854 38.201,302.283 38.166,303.986 38.164 C 307.770 38.162,307.667 38.187,308.168 37.115 C 308.390 36.639,308.626 36.211,308.691 36.164 C 308.854 36.046,310.000 33.585,310.000 33.353 C 310.000 33.250,310.063 33.167,310.139 33.167 C 310.215 33.167,310.494 32.754,310.757 32.250 C 311.444 30.937,311.295 30.581,312.334 36.000 C 312.536 37.054,312.787 37.972,312.892 38.039 C 312.997 38.106,315.037 38.163,317.425 38.164 L 321.768 38.167 321.973 39.042 C 322.086 39.523,322.282 40.554,322.408 41.333 C 322.534 42.112,322.765 43.313,322.923 44.000 C 323.080 44.688,323.265 45.587,323.334 46.000 C 323.403 46.413,323.587 47.350,323.744 48.083 C 323.901 48.817,324.129 50.017,324.251 50.750 C 324.465 52.031,324.860 54.011,325.431 56.667 C 325.721 58.011,325.796 58.397,326.340 61.333 C 326.535 62.387,326.849 63.962,327.037 64.833 C 327.225 65.704,327.434 66.754,327.502 67.167 C 327.569 67.579,327.747 68.465,327.896 69.136 C 328.045 69.806,328.167 70.500,328.167 70.678 C 328.167 70.995,327.710 71.000,297.450 71.000 L 266.733 71.000 266.539 68.125 C 266.433 66.544,266.268 64.988,266.173 64.668 C 266.078 64.348,266.000 63.541,266.000 62.876 L 266.000 61.667 260.853 61.667 L 255.705 61.667 255.608 60.792 C 255.555 60.310,255.433 58.904,255.338 57.667 C 254.939 52.468,254.814 51.001,254.641 49.500 C 254.540 48.629,254.398 47.129,254.325 46.167 C 253.912 40.741,253.811 39.599,253.737 39.479 C 253.692 39.406,253.546 37.675,253.413 35.632 C 253.280 33.588,253.056 30.792,252.915 29.417 C 252.775 28.042,252.588 25.979,252.501 24.833 C 252.413 23.688,252.229 21.662,252.092 20.333 C 251.954 19.004,251.751 16.473,251.641 14.708 C 251.530 12.944,251.379 11.500,251.303 11.500 C 251.228 11.500,251.155 11.219,251.142 10.875 C 251.120 10.333,251.109 10.316,251.057 10.750 C 251.023 11.025,250.890 11.625,250.760 12.083 C 250.513 12.954,250.220 14.230,250.072 15.083 C 250.024 15.358,249.920 15.808,249.841 16.083 C 249.762 16.358,249.570 17.221,249.413 18.000 C 249.137 19.379,248.807 20.868,248.250 23.250 C 248.100 23.892,247.877 25.037,247.756 25.795 C 247.635 26.553,247.462 27.266,247.373 27.378 C 247.284 27.491,247.158 27.921,247.093 28.333 C 246.782 30.309,246.717 30.608,246.532 30.947 C 246.290 31.391,246.278 32.575,246.503 33.917 C 246.595 34.467,246.745 36.079,246.836 37.500 C 246.928 38.921,247.039 40.533,247.084 41.083 C 247.128 41.633,247.202 42.608,247.248 43.250 C 247.294 43.892,247.362 44.604,247.400 44.833 C 247.525 45.584,247.660 47.540,247.756 50.000 C 247.807 51.329,247.882 52.574,247.922 52.767 C 247.962 52.960,248.073 54.273,248.170 55.684 C 248.266 57.095,248.376 58.550,248.413 58.917 C 248.503 59.800,248.803 63.677,249.005 66.583 C 249.095 67.867,249.237 69.517,249.322 70.250 C 249.407 70.983,249.524 72.521,249.581 73.667 C 249.767 77.409,249.894 78.905,250.074 79.470 C 250.200 79.866,251.319 80.198,251.737 79.964 C 251.901 79.872,252.100 79.868,252.217 79.954 C 252.461 80.134,253.169 80.123,253.473 79.934 C 253.600 79.855,253.772 79.872,253.873 79.973 C 253.996 80.096,254.150 80.098,254.370 79.981 C 254.588 79.864,254.754 79.865,254.898 79.984 C 255.045 80.107,255.165 80.102,255.297 79.970 C 255.438 79.829,255.544 79.829,255.714 79.970 C 255.884 80.111,255.991 80.109,256.137 79.963 C 256.285 79.815,256.380 79.814,256.526 79.959 C 256.663 80.096,256.811 80.101,257.043 79.977 C 257.254 79.864,257.426 79.860,257.531 79.964 C 257.629 80.062,257.932 80.071,258.305 79.985 C 259.015 79.821,259.333 80.090,259.333 80.855 C 259.333 81.107,259.408 81.360,259.500 81.417 C 259.592 81.473,259.667 81.823,259.667 82.195 C 259.667 82.978,260.151 87.979,260.258 88.301 C 260.414 88.773,260.886 88.165,261.605 86.569 C 262.013 85.660,262.457 84.680,262.590 84.391 C 262.724 84.103,262.833 83.751,262.833 83.610 C 262.833 83.468,262.908 83.307,263.000 83.250 C 263.092 83.193,263.167 82.776,263.167 82.323 L 263.167 81.500 264.375 81.476 C 270.187 81.362,276.037 81.427,276.187 81.607 C 276.278 81.718,276.422 82.695,276.507 83.779 C 276.676 85.938,277.078 88.801,277.235 88.957 C 277.289 89.011,277.333 88.968,277.333 88.861 C 277.333 88.732,277.719 88.667,278.487 88.667 C 279.811 88.667,280.352 88.346,280.925 87.222 C 281.104 86.871,281.407 86.321,281.600 86.000 C 282.892 83.847,283.191 83.150,283.145 82.400 C 283.118 81.959,283.179 81.596,283.291 81.526 C 283.506 81.393,296.093 81.368,296.219 81.500 C 296.262 81.546,296.384 82.296,296.489 83.167 C 296.594 84.037,296.790 85.350,296.924 86.083 C 297.058 86.817,297.168 87.608,297.167 87.842 C 297.166 88.683,296.989 88.667,306.193 88.667 L 314.819 88.667 315.285 88.061 C 315.541 87.728,315.881 87.336,316.042 87.191 C 316.202 87.045,316.333 86.830,316.333 86.713 C 316.333 86.596,316.392 86.500,316.464 86.500 C 316.536 86.500,316.734 86.265,316.904 85.977 C 317.074 85.689,317.334 85.331,317.481 85.180 C 317.845 84.808,318.667 83.711,318.667 83.596 C 318.667 83.478,320.141 81.535,320.310 81.431 C 320.480 81.326,320.959 82.876,321.078 83.917 C 321.131 84.375,321.250 85.125,321.343 85.583 C 321.435 86.042,321.532 86.546,321.558 86.705 C 321.583 86.863,321.656 87.045,321.719 87.108 C 321.782 87.171,321.833 87.397,321.833 87.611 L 321.833 88.000 350.357 88.000 L 378.880 88.000 379.982 87.044 C 380.588 86.518,381.143 85.993,381.217 85.878 C 381.290 85.762,381.452 85.667,381.578 85.667 C 381.703 85.667,381.831 85.605,381.861 85.531 C 381.917 85.393,382.975 84.435,384.746 82.917 C 385.951 81.884,387.253 80.725,387.865 80.139 C 388.121 79.895,388.401 79.670,388.487 79.639 C 388.573 79.609,389.149 79.133,389.767 78.583 C 393.032 75.676,393.984 74.849,394.640 74.351 C 394.929 74.131,395.574 73.569,396.074 73.101 C 396.574 72.633,397.356 71.923,397.812 71.523 C 399.292 70.227,402.037 70.333,367.069 70.333 L 335.673 70.333 335.579 69.875 C 335.527 69.623,335.382 68.967,335.257 68.417 C 335.132 67.867,334.939 66.967,334.828 66.417 C 334.717 65.867,334.556 65.154,334.470 64.833 C 334.385 64.512,334.249 63.875,334.170 63.417 C 334.090 62.958,333.904 61.983,333.757 61.250 C 333.609 60.517,333.409 59.504,333.312 59.000 C 333.214 58.496,333.029 57.732,332.901 57.302 C 332.772 56.872,332.667 56.367,332.667 56.179 C 332.667 55.779,332.403 54.562,332.087 53.500 C 331.964 53.087,331.814 52.337,331.755 51.833 C 331.695 51.329,331.469 50.129,331.253 49.167 C 331.037 48.204,330.734 46.817,330.581 46.083 C 330.428 45.350,330.241 44.525,330.165 44.250 C 330.089 43.975,329.979 43.375,329.920 42.917 C 329.861 42.458,329.711 41.671,329.587 41.167 C 329.462 40.662,329.274 39.800,329.168 39.250 C 329.063 38.700,328.872 37.837,328.745 37.333 C 328.618 36.829,328.396 35.742,328.252 34.917 C 328.109 34.092,327.888 32.967,327.761 32.417 C 327.634 31.867,327.439 30.967,327.328 30.417 C 327.217 29.867,327.029 29.004,326.909 28.500 C 326.716 27.687,326.341 25.815,325.808 23.000 C 325.713 22.496,325.529 21.732,325.401 21.302 C 325.272 20.872,325.167 20.367,325.167 20.179 C 325.167 19.793,324.888 18.499,324.643 17.750 C 324.553 17.475,324.374 16.575,324.245 15.750 C 324.116 14.925,323.895 13.762,323.753 13.167 C 323.612 12.571,323.423 11.708,323.333 11.250 C 323.244 10.792,323.056 9.929,322.915 9.333 C 322.775 8.737,322.550 7.612,322.417 6.833 C 322.152 5.290,321.902 4.195,321.635 3.417 C 321.541 3.142,321.414 2.654,321.353 2.333 L 321.242 1.750 321.013 2.700 M79.000 2.471 C 79.000 2.649,78.888 3.010,78.751 3.273 C 78.614 3.535,78.502 3.900,78.501 4.083 C 78.499 4.508,78.046 6.689,77.854 7.197 C 77.774 7.410,77.656 8.071,77.593 8.667 C 77.529 9.262,77.377 10.087,77.255 10.500 C 77.133 10.912,76.946 11.737,76.840 12.333 C 76.735 12.929,76.568 13.717,76.469 14.083 C 76.157 15.251,75.870 16.724,75.757 17.753 C 75.697 18.301,75.546 19.050,75.422 19.417 C 75.299 19.783,75.154 20.383,75.100 20.750 C 74.982 21.547,74.752 22.669,74.518 23.583 C 74.424 23.950,74.263 24.700,74.160 25.250 C 74.057 25.800,73.910 26.550,73.833 26.917 C 73.757 27.283,73.610 28.033,73.507 28.583 C 73.404 29.133,73.243 29.883,73.150 30.250 C 73.057 30.617,72.943 31.104,72.897 31.333 C 72.635 32.638,73.065 32.500,69.268 32.500 L 65.877 32.500 65.689 33.208 C 65.433 34.171,65.176 35.372,65.171 35.625 C 65.168 35.785,65.953 35.833,68.553 35.833 L 71.940 35.833 71.820 36.625 C 71.623 37.927,71.365 39.218,71.197 39.750 C 71.110 40.025,70.949 40.775,70.839 41.417 C 70.729 42.058,70.538 42.921,70.414 43.333 C 70.291 43.746,70.142 44.496,70.084 45.000 C 70.025 45.504,69.879 46.292,69.759 46.750 C 69.638 47.208,69.451 48.071,69.344 48.667 C 69.236 49.262,69.046 50.163,68.922 50.667 C 68.572 52.086,68.355 53.173,68.241 54.083 C 68.183 54.542,68.033 55.292,67.907 55.750 C 67.781 56.208,67.569 57.146,67.436 57.833 C 67.214 58.984,66.745 61.268,66.334 63.208 C 66.242 63.644,66.087 64.394,65.991 64.875 C 65.894 65.356,65.734 66.087,65.636 66.500 C 65.432 67.356,65.184 68.610,65.025 69.583 L 64.917 70.250 33.083 70.334 C 15.575 70.381,1.231 70.437,1.208 70.459 C 1.053 70.611,1.226 71.001,1.542 71.208 C 2.009 71.515,2.907 72.271,3.522 72.875 C 3.779 73.127,4.066 73.333,4.161 73.333 C 4.256 73.333,4.334 73.427,4.334 73.542 C 4.335 73.656,4.601 73.931,4.925 74.151 C 5.249 74.372,5.806 74.822,6.163 75.151 C 7.464 76.352,8.592 77.336,8.968 77.598 C 9.179 77.745,9.635 78.140,9.980 78.474 C 11.011 79.474,13.007 81.238,13.310 81.417 C 13.623 81.601,14.142 82.034,14.810 82.668 C 15.052 82.898,15.775 83.535,16.417 84.085 C 17.058 84.634,17.705 85.215,17.853 85.375 C 18.001 85.535,18.164 85.667,18.215 85.667 C 18.265 85.667,18.645 86.004,19.057 86.417 C 19.470 86.829,19.882 87.167,19.975 87.167 C 20.067 87.167,20.290 87.354,20.470 87.583 L 20.798 88.000 49.631 88.000 C 81.422 88.000,78.667 88.095,78.667 86.996 C 78.667 86.734,78.742 86.473,78.833 86.417 C 78.925 86.360,79.000 85.985,79.000 85.584 C 79.000 85.183,79.074 84.660,79.164 84.423 C 79.255 84.185,79.443 83.224,79.583 82.287 C 79.921 80.022,80.079 79.466,80.258 79.917 C 80.330 80.100,80.583 80.482,80.820 80.765 C 81.056 81.049,81.362 81.452,81.500 81.661 C 81.637 81.870,81.844 82.139,81.958 82.259 C 82.073 82.378,82.167 82.546,82.167 82.631 C 82.167 82.717,82.354 82.927,82.583 83.100 C 82.813 83.272,83.000 83.504,83.000 83.616 C 83.000 83.729,83.319 84.217,83.709 84.702 C 84.099 85.187,84.711 86.015,85.070 86.542 C 85.429 87.069,85.785 87.500,85.861 87.500 C 85.937 87.500,86.000 87.612,86.000 87.750 C 86.000 87.934,86.192 88.000,86.724 88.000 C 87.538 88.000,87.833 87.478,87.833 86.037 C 87.833 85.666,87.946 84.775,88.083 84.056 C 88.221 83.338,88.333 82.515,88.333 82.229 C 88.333 81.238,87.849 81.274,99.965 81.363 C 106.080 81.408,111.308 81.391,111.583 81.326 C 111.858 81.260,111.980 81.197,111.854 81.186 C 111.683 81.172,111.656 81.029,111.747 80.625 C 111.881 80.029,112.114 78.184,112.269 76.500 C 112.398 75.094,112.508 75.011,112.978 75.964 C 113.553 77.126,113.545 77.110,114.560 79.047 C 115.077 80.032,115.500 80.950,115.500 81.086 C 115.500 81.369,115.934 81.413,118.750 81.415 L 120.583 81.417 120.681 82.167 C 120.735 82.579,121.061 83.517,121.405 84.250 C 122.255 86.061,122.456 86.523,122.575 86.939 C 123.006 88.445,123.637 88.162,123.753 86.409 C 123.906 84.078,124.212 81.757,124.397 81.521 C 124.546 81.329,126.166 81.299,134.080 81.339 C 143.553 81.386,145.357 81.365,144.778 81.216 C 144.502 81.145,144.483 81.004,144.575 79.777 C 144.632 79.029,144.749 77.094,144.836 75.478 C 144.922 73.862,145.070 72.338,145.163 72.092 C 145.257 71.846,145.333 71.181,145.332 70.614 C 145.331 69.655,145.465 67.805,145.830 63.775 C 145.911 62.872,145.916 61.972,145.840 61.775 C 145.764 61.578,145.611 61.079,145.500 60.667 C 145.390 60.254,145.193 59.715,145.063 59.469 C 144.828 59.023,144.829 59.020,145.451 58.969 C 146.225 58.904,146.468 58.276,146.487 56.282 C 146.494 55.566,146.569 54.479,146.654 53.865 C 146.739 53.252,146.892 51.625,146.993 50.250 C 147.095 48.875,147.285 46.625,147.417 45.250 C 147.548 43.875,147.735 41.737,147.831 40.500 C 148.246 35.206,148.381 33.974,148.525 34.193 C 148.615 34.330,148.634 34.159,148.574 33.750 C 148.521 33.383,148.561 31.883,148.664 30.417 C 149.019 25.373,149.055 23.846,148.845 22.862 C 148.622 21.815,148.236 20.144,147.606 17.500 C 147.376 16.537,147.027 15.037,146.829 14.167 C 146.272 11.717,146.214 11.469,146.006 10.667 C 145.765 9.736,145.531 8.624,145.393 7.750 C 145.336 7.383,145.223 7.000,145.143 6.898 C 145.063 6.796,144.921 6.271,144.827 5.731 C 144.187 2.041,143.866 2.410,143.506 7.250 C 143.403 8.625,143.242 10.275,143.147 10.917 C 143.052 11.558,142.867 13.508,142.737 15.250 C 142.488 18.564,142.310 20.519,142.014 23.167 C 141.916 24.037,141.755 25.650,141.654 26.750 C 141.553 27.850,141.370 29.613,141.247 30.667 C 141.124 31.721,140.976 33.483,140.919 34.583 C 140.862 35.683,140.735 37.123,140.637 37.782 L 140.457 38.981 137.075 39.032 C 133.140 39.092,133.481 38.929,133.375 40.800 L 133.290 42.280 134.837 42.390 C 135.688 42.451,137.220 42.500,138.242 42.500 L 140.099 42.500 140.047 43.625 C 140.019 44.244,139.887 45.650,139.753 46.750 C 139.504 48.804,139.300 50.956,138.996 54.750 C 138.900 55.942,138.753 57.517,138.668 58.250 C 138.584 58.983,138.430 60.558,138.327 61.750 C 138.224 62.942,138.034 64.776,137.903 65.826 C 137.773 66.877,137.667 68.086,137.667 68.514 C 137.667 68.942,137.620 69.526,137.563 69.813 L 137.458 70.333 123.729 70.333 C 116.178 70.333,110.000 70.279,110.000 70.212 C 110.000 70.145,110.109 69.527,110.243 68.837 C 110.376 68.148,110.565 66.908,110.663 66.083 C 110.760 65.258,110.949 63.946,111.082 63.167 C 111.215 62.387,111.368 61.225,111.420 60.583 C 111.529 59.267,111.742 57.709,112.082 55.750 C 112.209 55.017,112.399 53.629,112.505 52.667 C 112.611 51.704,112.800 50.392,112.925 49.750 C 113.050 49.108,113.232 47.704,113.329 46.628 C 113.426 45.553,113.575 44.492,113.659 44.270 C 113.890 43.662,113.922 43.667,109.218 43.667 L 104.825 43.667 104.658 44.107 C 104.566 44.349,104.422 45.155,104.338 45.898 C 104.254 46.642,104.030 48.262,103.840 49.500 C 103.650 50.737,103.424 52.334,103.337 53.047 C 103.251 53.760,103.137 54.414,103.083 54.500 C 103.030 54.586,102.906 55.278,102.808 56.037 C 102.710 56.796,102.569 57.829,102.494 58.333 C 102.420 58.837,102.238 60.075,102.092 61.083 C 101.608 64.402,101.480 65.235,101.247 66.583 C 101.121 67.317,100.931 68.460,100.827 69.125 L 100.636 70.333 86.985 70.333 L 73.333 70.333 73.333 69.854 C 73.333 69.591,73.435 69.085,73.558 68.729 C 73.682 68.374,73.833 67.633,73.893 67.083 C 74.014 65.992,74.239 64.756,74.577 63.333 C 74.697 62.829,74.887 61.854,74.999 61.167 C 75.111 60.479,75.302 59.579,75.423 59.167 C 75.545 58.754,75.692 57.929,75.750 57.333 C 75.808 56.737,75.955 55.913,76.077 55.500 C 76.198 55.087,76.385 54.188,76.493 53.500 C 76.601 52.813,76.791 51.837,76.916 51.333 C 77.208 50.157,77.453 48.824,77.589 47.667 C 77.648 47.163,77.799 46.413,77.923 46.000 C 78.048 45.587,78.231 44.725,78.332 44.083 C 78.432 43.442,78.618 42.504,78.746 42.000 C 78.873 41.496,79.064 40.521,79.168 39.833 C 79.273 39.146,79.422 38.283,79.499 37.917 C 79.576 37.550,79.723 36.800,79.825 36.250 C 79.927 35.700,80.118 34.762,80.249 34.167 C 80.380 33.571,80.571 32.596,80.674 32.000 C 80.776 31.404,80.960 30.542,81.083 30.083 C 81.206 29.625,81.354 28.837,81.413 28.333 C 81.546 27.183,81.790 25.852,82.084 24.667 C 82.209 24.162,82.399 23.188,82.507 22.500 C 82.615 21.813,82.802 20.912,82.923 20.500 C 83.045 20.087,83.195 19.269,83.258 18.681 C 83.321 18.092,83.442 17.380,83.528 17.097 C 84.229 14.774,84.342 12.721,83.826 11.667 C 83.579 11.163,83.240 10.450,83.073 10.083 C 82.905 9.717,82.670 9.357,82.551 9.283 C 82.431 9.210,82.333 9.003,82.333 8.823 C 82.333 8.480,82.062 7.921,81.709 7.536 C 81.594 7.412,81.451 7.109,81.390 6.863 C 81.330 6.618,81.105 6.137,80.890 5.795 C 80.676 5.453,80.500 5.064,80.500 4.930 C 80.500 4.796,80.425 4.640,80.333 4.583 C 80.146 4.468,79.500 3.117,79.500 2.842 C 79.500 2.746,79.421 2.667,79.323 2.667 C 79.226 2.667,79.190 2.597,79.243 2.512 C 79.296 2.426,79.263 2.309,79.169 2.252 C 79.076 2.194,79.000 2.293,79.000 2.471 M175.195 4.716 C 175.079 5.560,174.913 8.162,174.825 10.500 C 174.737 12.838,174.586 16.625,174.490 18.917 C 174.393 21.208,174.250 24.846,174.172 27.000 C 174.012 31.377,173.750 37.068,173.499 41.583 C 173.407 43.233,173.332 45.371,173.332 46.333 C 173.332 47.296,173.257 49.096,173.165 50.333 C 173.074 51.571,172.886 55.883,172.749 59.917 C 172.611 63.950,172.451 67.944,172.391 68.792 L 172.284 70.333 159.329 70.333 C 145.008 70.333,145.796 70.272,146.150 71.367 C 146.248 71.669,146.675 73.042,147.099 74.417 C 147.523 75.792,148.001 77.329,148.162 77.833 C 148.323 78.337,148.548 79.087,148.661 79.500 C 148.773 79.912,148.934 80.380,149.016 80.539 C 149.099 80.699,149.167 80.942,149.167 81.081 C 149.167 81.396,149.301 81.409,152.665 81.413 L 155.414 81.417 155.520 82.275 C 155.578 82.747,155.665 83.197,155.713 83.275 C 155.762 83.353,155.852 83.819,155.914 84.310 C 155.976 84.802,156.133 85.552,156.262 85.977 C 156.391 86.402,156.497 86.902,156.498 87.088 C 156.502 87.849,158.145 88.397,158.404 87.723 C 158.462 87.571,158.557 86.127,158.614 84.515 C 158.678 82.684,158.786 81.537,158.900 81.459 C 159.001 81.391,161.951 81.338,165.457 81.341 L 171.831 81.348 171.906 81.716 C 171.948 81.918,172.021 82.646,172.069 83.333 C 172.371 87.684,172.497 88.000,173.936 88.000 C 175.298 88.000,175.288 88.024,175.385 84.750 C 175.733 73.045,175.852 69.900,175.983 68.974 C 176.066 68.393,176.143 66.349,176.155 64.433 C 176.168 62.517,176.216 60.889,176.262 60.814 C 176.308 60.739,176.418 58.069,176.506 54.880 C 176.594 51.692,176.740 47.133,176.831 44.750 C 176.923 42.367,177.072 38.167,177.162 35.417 C 177.253 32.667,177.410 29.040,177.511 27.357 C 177.643 25.164,177.644 24.006,177.515 23.267 C 177.417 22.701,177.260 21.340,177.167 20.243 C 177.075 19.147,176.922 17.575,176.829 16.750 C 176.735 15.925,176.581 14.387,176.488 13.333 C 176.084 8.804,176.022 8.200,175.862 7.250 C 175.770 6.700,175.651 5.582,175.599 4.766 C 175.547 3.950,175.482 3.260,175.455 3.232 C 175.427 3.205,175.310 3.873,175.195 4.716 M259.720 3.633 C 259.481 3.782,259.089 4.919,258.845 6.167 C 258.436 8.263,258.334 8.688,258.158 9.016 C 257.890 9.517,258.379 9.822,259.464 9.828 C 260.568 9.835,260.593 9.774,260.329 7.707 C 260.215 6.814,260.076 5.504,260.019 4.797 C 259.945 3.867,259.862 3.544,259.720 3.633 M236.521 5.492 C 236.509 6.025,236.561 6.335,236.647 6.242 C 236.728 6.155,236.738 5.746,236.668 5.333 L 236.542 4.583 236.521 5.492 M350.500 18.477 C 350.500 18.890,351.024 21.164,351.485 22.750 C 351.671 23.392,351.826 24.080,351.828 24.280 C 351.841 25.219,351.256 25.181,364.892 25.130 C 377.877 25.082,378.167 25.066,378.167 24.411 C 378.167 24.277,378.279 24.167,378.417 24.167 C 378.554 24.167,378.667 24.098,378.667 24.015 C 378.667 23.932,379.117 23.325,379.667 22.667 C 380.217 22.008,380.668 21.420,380.669 21.360 C 380.670 21.299,380.962 20.936,381.318 20.553 C 382.339 19.454,382.871 18.696,382.754 18.507 C 382.621 18.291,350.500 18.261,350.500 18.477 M41.915 18.708 C 41.874 18.823,41.729 19.355,41.592 19.891 C 41.455 20.428,41.269 21.103,41.178 21.391 C 41.006 21.939,40.333 24.617,40.333 24.754 C 40.333 24.798,42.171 24.833,44.417 24.833 C 48.065 24.833,48.500 24.805,48.500 24.564 C 48.500 24.416,48.612 23.947,48.748 23.522 C 48.964 22.848,50.000 18.750,50.000 18.568 C 50.000 18.373,41.985 18.513,41.915 18.708 M108.749 18.958 C 108.635 19.395,108.571 19.841,108.189 22.917 C 108.098 23.650,107.972 24.381,107.910 24.542 C 107.805 24.815,108.060 24.833,111.873 24.833 L 115.948 24.833 116.217 23.458 C 116.365 22.702,116.527 21.708,116.578 21.250 C 116.629 20.792,116.718 19.985,116.775 19.458 L 116.880 18.500 112.875 18.500 L 108.869 18.500 108.749 18.958 M208.393 28.995 C 208.456 34.768,208.551 39.605,208.605 39.745 C 208.689 39.964,209.272 40.000,212.743 40.000 L 216.783 40.000 216.910 42.958 C 217.016 45.445,217.139 48.913,217.161 50.042 C 217.166 50.292,217.338 50.333,218.387 50.333 L 219.607 50.333 219.550 47.542 C 219.518 46.006,219.419 43.025,219.329 40.917 C 219.239 38.808,219.165 35.883,219.163 34.417 C 219.162 32.950,219.084 30.438,218.990 28.833 C 218.897 27.229,218.820 24.417,218.820 22.583 C 218.819 20.750,218.776 19.081,218.724 18.875 L 218.631 18.500 213.455 18.500 L 208.279 18.500 208.393 28.995 M356.667 43.498 C 356.667 43.768,357.027 45.208,357.252 45.833 C 357.367 46.154,357.622 47.129,357.820 48.000 C 358.017 48.871,358.263 49.865,358.366 50.208 L 358.553 50.833 371.038 50.833 C 380.231 50.833,383.618 50.782,383.886 50.639 C 384.235 50.453,386.008 48.663,387.417 47.076 C 387.783 46.663,388.306 46.121,388.578 45.871 C 388.849 45.621,389.262 45.198,389.494 44.930 C 389.727 44.663,390.083 44.281,390.286 44.083 C 390.567 43.808,390.609 43.676,390.461 43.528 C 390.208 43.274,356.667 43.244,356.667 43.498 M35.193 44.091 C 35.087 44.325,35.000 44.637,35.000 44.785 C 35.000 44.933,34.888 45.436,34.752 45.902 C 34.378 47.180,33.658 50.214,33.716 50.271 C 33.743 50.299,35.631 50.343,37.910 50.369 L 42.055 50.417 42.293 49.333 C 42.425 48.737,42.630 47.987,42.750 47.667 C 42.869 47.346,43.056 46.633,43.165 46.083 C 43.274 45.533,43.461 44.807,43.581 44.469 C 43.879 43.626,44.085 43.667,39.499 43.667 L 35.387 43.667 35.193 44.091 M208.705 45.333 C 208.705 45.654,208.740 45.785,208.782 45.625 C 208.823 45.465,208.823 45.202,208.782 45.042 C 208.740 44.881,208.705 45.012,208.705 45.333 M240.236 66.917 L 240.355 70.333 210.948 70.333 C 184.927 70.333,181.517 70.362,181.332 70.585 C 181.111 70.851,181.259 72.779,181.755 76.083 C 181.878 76.908,182.028 78.521,182.087 79.667 C 182.146 80.813,182.287 82.125,182.401 82.583 C 182.516 83.042,182.624 83.904,182.642 84.500 C 182.660 85.096,182.758 86.127,182.860 86.792 L 183.046 88.000 187.523 88.000 L 192.000 88.000 192.000 84.768 C 192.000 81.974,192.036 81.522,192.264 81.434 C 192.872 81.201,223.118 81.324,223.315 81.561 C 223.431 81.700,223.545 82.984,223.611 84.894 L 223.719 88.000 224.872 88.000 C 226.231 88.000,226.438 87.852,226.667 86.718 C 226.756 86.277,226.903 85.617,226.994 85.250 C 227.085 84.883,227.161 83.936,227.163 83.145 C 227.168 81.184,226.805 81.312,232.278 81.336 C 234.829 81.346,238.233 81.350,239.842 81.344 L 242.767 81.333 243.136 79.958 C 243.340 79.202,243.620 78.133,243.760 77.583 C 243.899 77.033,244.096 76.283,244.196 75.917 C 244.296 75.550,244.437 75.025,244.508 74.750 C 244.579 74.475,244.751 73.875,244.889 73.417 C 245.028 72.958,245.235 72.171,245.348 71.667 C 245.462 71.162,245.693 70.321,245.861 69.797 C 246.029 69.273,246.167 68.716,246.167 68.559 C 246.167 68.402,246.236 68.043,246.322 67.762 C 246.407 67.480,246.590 66.837,246.728 66.333 C 246.867 65.829,247.069 65.103,247.179 64.721 C 247.537 63.472,247.618 63.500,243.647 63.500 L 240.117 63.500 240.236 66.917 M225.039 93.833 C 225.039 94.154,225.073 94.285,225.115 94.125 C 225.157 93.965,225.157 93.702,225.115 93.542 C 225.073 93.381,225.039 93.513,225.039 93.833 M224.048 94.750 C 224.049 95.208,224.081 95.376,224.120 95.123 C 224.158 94.869,224.157 94.494,224.117 94.289 C 224.078 94.084,224.046 94.292,224.048 94.750 M225.209 101.417 C 225.211 101.783,225.245 101.914,225.285 101.706 C 225.324 101.499,225.323 101.199,225.281 101.040 C 225.239 100.880,225.207 101.050,225.209 101.417 M173.214 103.917 C 173.216 104.375,173.248 104.543,173.286 104.289 C 173.325 104.036,173.324 103.661,173.284 103.456 C 173.244 103.251,173.213 103.458,173.214 103.917 M224.714 109.583 C 224.716 110.042,224.748 110.209,224.786 109.956 C 224.825 109.703,224.824 109.328,224.784 109.123 C 224.744 108.918,224.713 109.125,224.714 109.583 M189.712 116.500 C 189.712 116.912,189.745 117.081,189.784 116.875 C 189.824 116.669,189.824 116.331,189.784 116.125 C 189.745 115.919,189.712 116.087,189.712 116.500 M224.885 116.917 C 224.886 117.467,224.917 117.672,224.954 117.372 C 224.991 117.072,224.990 116.622,224.952 116.372 C 224.914 116.122,224.884 116.367,224.885 116.917 M208.127 119.285 C 208.334 119.324,208.634 119.323,208.794 119.281 C 208.953 119.239,208.783 119.207,208.417 119.209 C 208.050 119.211,207.920 119.245,208.127 119.285 M139.875 119.917 C 139.877 120.283,139.911 120.414,139.951 120.206 C 139.991 119.999,139.990 119.699,139.948 119.540 C 139.906 119.380,139.874 119.550,139.875 119.917 M139.705 122.167 C 139.705 122.487,139.740 122.619,139.782 122.458 C 139.823 122.298,139.823 122.035,139.782 121.875 C 139.740 121.715,139.705 121.846,139.705 122.167 M226.042 122.917 C 226.044 123.283,226.078 123.414,226.118 123.206 C 226.158 122.999,226.156 122.699,226.115 122.540 C 226.073 122.380,226.040 122.550,226.042 122.917 M280.039 122.833 C 280.039 123.154,280.073 123.285,280.115 123.125 C 280.157 122.965,280.157 122.702,280.115 122.542 C 280.073 122.381,280.039 122.513,280.039 122.833 M209.389 125.167 C 209.389 125.854,209.419 126.135,209.455 125.792 C 209.491 125.448,209.491 124.885,209.455 124.542 C 209.419 124.198,209.389 124.479,209.389 125.167 M91.167 128.667 C 91.448 128.942,91.719 129.167,91.770 129.167 C 91.820 129.167,91.649 128.942,91.390 128.667 C 91.130 128.392,90.859 128.167,90.786 128.167 C 90.714 128.167,90.885 128.392,91.167 128.667 M99.804 129.292 C 104.051 129.316,110.951 129.316,115.138 129.292 C 119.324 129.267,115.850 129.247,107.417 129.247 C 98.983 129.247,95.558 129.267,99.804 129.292 M130.208 129.291 C 131.744 129.319,134.256 129.319,135.792 129.291 C 137.327 129.264,136.071 129.241,133.000 129.241 C 129.929 129.241,128.673 129.264,130.208 129.291 M168.042 129.292 C 171.960 129.317,178.373 129.317,182.292 129.292 C 186.210 129.267,183.004 129.246,175.167 129.246 C 167.329 129.246,164.123 129.267,168.042 129.292 M195.458 129.291 C 197.131 129.319,199.869 129.319,201.542 129.291 C 203.215 129.264,201.846 129.242,198.500 129.242 C 195.154 129.242,193.785 129.264,195.458 129.291 M213.198 129.291 C 214.727 129.319,217.277 129.319,218.864 129.291 C 220.451 129.264,219.200 129.242,216.083 129.241 C 212.967 129.241,211.668 129.264,213.198 129.291 M234.612 129.292 C 238.753 129.316,245.578 129.316,249.779 129.292 C 253.980 129.267,250.592 129.247,242.250 129.247 C 233.908 129.247,230.471 129.267,234.612 129.292 M264.875 129.291 C 266.319 129.319,268.681 129.319,270.125 129.291 C 271.569 129.264,270.387 129.241,267.500 129.241 C 264.612 129.241,263.431 129.264,264.875 129.291 M283.781 129.291 C 285.356 129.319,287.981 129.319,289.614 129.291 C 291.247 129.264,289.958 129.242,286.750 129.242 C 283.542 129.242,282.206 129.264,283.781 129.291 " stroke="none" fill="#921426" fill-rule="evenodd"></path></g></svg>